<svg xmlns="http://www.w3.org/2000/svg" version="1.1" xmlns:xlink="http://www.w3.org/1999/xlink" width="512" height="512" x="0" y="0" viewBox="0 0 512 512" style="enable-background:new 0 0 512 512" xml:space="preserve" class=""><g><g fill-rule="evenodd" clip-rule="evenodd"><path fill="#fff0eb" d="M46 69.206h420c16.523 0 30 13.477 30 30V466c0 16.523-13.477 30-30 30H46c-16.523 0-30-13.477-30-30V99.206c0-16.523 13.477-30 30-30z" opacity="1" data-original="#f9f3f1" class=""></path><path fill="#ff6868" d="M16 162.373h480V99.206c0-16.523-13.476-30-30-30H46c-16.523 0-30 13.477-30 30z" opacity="1" data-original="#f79595" class=""></path><path fill="#ffd45e" d="M401.299 16c15.827 0 28.775 12.949 28.775 28.775v48.861c0 15.827-12.949 28.775-28.775 28.775-15.827 0-28.775-12.949-28.775-28.775V44.775c0-15.826 12.948-28.775 28.775-28.775zm-290.598 0c15.827 0 28.775 12.949 28.775 28.775v48.861c0 15.827-12.949 28.775-28.775 28.775s-28.775-12.949-28.775-28.775V44.775C81.926 28.949 94.874 16 110.701 16zM256 16c15.827 0 28.775 12.949 28.775 28.775v48.861c0 15.827-12.949 28.775-28.775 28.775-15.827 0-28.775-12.949-28.775-28.775V44.775C227.225 28.949 240.173 16 256 16z" opacity="1" data-original="#fad97f" class=""></path><path fill="#49535a" d="M146.486 392.84v-90.107h219.029v90.107c0 5.125-2.326 9.532-6.558 12.422-21.999 15.023-59.894 24.943-102.956 24.943s-80.957-9.92-102.956-24.943c-4.233-2.891-6.559-7.298-6.559-12.422z" opacity="1" data-original="#505c64" class=""></path><path fill="#5f696f" d="m418.004 285.978-153.99-58.505c-5.371-2.041-10.657-2.041-16.028 0l-153.99 58.505c-2.978 1.131-4.85 3.846-4.85 7.031s1.873 5.9 4.85 7.031l153.99 58.505c5.371 2.041 10.657 2.041 16.028 0l153.99-58.505c2.978-1.131 4.85-3.846 4.85-7.031s-1.872-5.899-4.85-7.031z" opacity="1" data-original="#63717b" class=""></path><path fill="#ffd45e" d="M113.53 372.991c-6.382 0-11.603 5.221-11.603 11.603v40.316c0 4.143 3.379 7.521 7.521 7.521h8.164c4.143 0 7.521-3.378 7.521-7.521v-40.316c0-6.382-5.221-11.603-11.603-11.603z" opacity="1" data-original="#fad97f" class=""></path><path d="m416.201 295.369-153.969 58.503c-4.279 1.618-8.23 1.618-12.462 0l-114.701-43.571 121.426-12.312c2.728-.278 4.75-2.742 4.468-5.479-.282-2.751-2.681-4.75-5.455-4.468l-141.319 14.325-18.435-6.998c-1.458-.56-1.599-1.839-1.599-2.361 0-.517.141-1.801 1.599-2.361l154.016-58.498c2.116-.809 4.185-1.209 6.208-1.209 2.069 0 4.139.4 6.255 1.209l153.969 58.498c1.505.56 1.646 1.843 1.646 2.361-.001.523-.143 1.802-1.647 2.361zm-55.728 97.47v-65.608l-94.714 35.99c-3.245 1.237-6.49 1.848-9.782 1.848-3.245 0-6.537-.611-9.782-1.848l-94.714-35.99v65.608c0 3.471 1.505 6.339 4.374 8.291 46.793 31.96 153.452 31.96 200.292 0 2.821-1.951 4.326-4.82 4.326-8.291zm-240.36 32.073a2.524 2.524 0 0 1-2.54 2.516h-8.136a2.524 2.524 0 0 1-2.539-2.516V384.6c0-3.64 2.963-6.607 6.631-6.607 3.621 0 6.584 2.968 6.584 6.607zm299.662-143.604L265.758 222.8c-6.49-2.469-13.074-2.469-19.564 0L92.226 281.308c-4.938 1.862-8.089 6.452-8.089 11.701 0 5.253 3.151 9.843 8.089 11.71l16.271 6.194v57.858c-6.678 2.121-11.569 8.408-11.569 15.829v40.312c0 6.908 5.597 12.519 12.509 12.519h8.136c6.913 0 12.556-5.61 12.556-12.519V384.6c0-7.421-4.891-13.709-11.616-15.829v-54.059l22.949 8.719v69.408c0 6.829 3.104 12.702 8.747 16.549 25.207 17.222 65.51 25.832 105.766 25.832 40.303 0 80.559-8.611 105.813-25.832 5.596-3.847 8.7-9.721 8.7-16.549v-69.408l49.285-18.713c4.891-1.867 8.042-6.457 8.042-11.71.001-5.248-3.149-9.838-8.04-11.7zm46.228 209.693c13.779 0 24.972-11.212 24.972-25V167.378H20.978v298.623c0 13.789 11.24 25 25.019 25zM45.997 74.211h30.897v19.432c0 18.618 15.19 33.766 33.813 33.766s33.766-15.148 33.766-33.766V74.211h77.737v19.432c0 18.618 15.143 33.766 33.766 33.766s33.813-15.148 33.813-33.766V74.211h77.737v19.432c0 18.618 15.143 33.766 33.766 33.766s33.766-15.148 33.766-33.766V74.211h30.944c13.779 0 24.972 11.207 24.972 25v58.169H20.978V99.211c0-13.793 11.24-25 25.019-25zm40.914-29.43v48.862c0 13.107 10.675 23.768 23.796 23.768 13.074 0 23.749-10.661 23.749-23.768V44.781c0-13.111-10.675-23.782-23.749-23.782-13.12 0-23.796 10.671-23.796 23.782zm145.317 0v48.862c0 13.107 10.628 23.768 23.749 23.768s23.796-10.661 23.796-23.768V44.781c0-13.111-10.676-23.782-23.796-23.782-13.121 0-23.749 10.671-23.749 23.782zm145.269 0v48.862c0 13.107 10.675 23.768 23.796 23.768s23.749-10.661 23.749-23.768V44.781c0-13.111-10.628-23.782-23.749-23.782s-23.796 10.671-23.796 23.782zm88.506 19.427h-30.944V44.781c0-18.632-15.143-33.78-33.766-33.78s-33.766 15.147-33.766 33.78v19.427H289.79V44.781c0-18.632-15.19-33.78-33.813-33.78s-33.766 15.147-33.766 33.78v19.427h-77.737V44.781c0-18.632-15.143-33.78-33.766-33.78s-33.813 15.147-33.813 33.78v19.427H45.997c-19.329 0-34.989 15.703-34.989 35.003V466c0 19.3 15.66 34.998 34.989 34.998h420.006c19.281 0 34.989-15.698 34.989-34.998V99.211c0-19.3-15.707-35.003-34.989-35.003z" fill="#000000" opacity="1" data-original="#000000" class=""></path></g></g></svg>