<svg xmlns="http://www.w3.org/2000/svg" version="1.1" xmlns:xlink="http://www.w3.org/1999/xlink" width="512" height="512" x="0" y="0" viewBox="0 0 64 64" style="enable-background:new 0 0 512 512" xml:space="preserve" class=""><g><path fill="#e2e7f6" d="M60 52H14a2 2 0 0 1-2-2V10a2 2 0 0 1 2-2h46a2 2 0 0 1 2 2v40a2 2 0 0 1-2 2z" opacity="1" data-original="#e2e7f6"></path><path fill="#ffffff" d="M14 8a2 2 0 0 0-2 2v33h33a4 4 0 0 0 4-4V8z" opacity="1" data-original="#ffffff" class=""></path><path fill="#559b2d" d="M28 34h6v6h-6z" opacity="1" data-original="#559b2d" class=""></path><path fill="#6bc13b" d="M28 34v4h3a1 1 0 0 0 1-1v-3z" opacity="1" data-original="#6bc13b" class=""></path><path fill="#2458ad" d="M17 32c8.284 0 15 6.716 15 15 0 1.993-.397 3.891-1.103 5.631A14.907 14.907 0 0 0 33 45c0-8.284-6.716-15-15-15-6.291 0-11.669 3.877-13.897 9.369C6.716 34.963 11.506 32 17 32z" opacity="1" data-original="#2458ad" class=""></path><circle cx="17" cy="47" r="15" fill="#2862be" opacity="1" data-original="#2862be"></circle><path fill="#3279ea" d="M17 32C8.716 32 2 38.716 2 47c0 2.945.861 5.683 2.327 8H21a4 4 0 0 0 4-4V34.327A14.909 14.909 0 0 0 17 32z" opacity="1" data-original="#3279ea"></path><path fill="#559b2d" d="M52 34h6v6h-6z" opacity="1" data-original="#559b2d" class=""></path><path fill="#6bc13b" d="M52 34v4h3a1 1 0 0 0 1-1v-3z" opacity="1" data-original="#6bc13b" class=""></path><path fill="#a9adcc" d="m39 52 18-15 5 7-18 8" opacity="1" data-original="#a9adcc"></path><path fill="#8389b2" d="m44 52 18-8v6a2 2 0 0 1-2 2z" opacity="1" data-original="#8389b2" class=""></path><path fill="#559b2d" d="M40 24h6v6h-6z" opacity="1" data-original="#559b2d" class=""></path><path fill="#6bc13b" d="M40 24v4h3a1 1 0 0 0 1-1v-3z" opacity="1" data-original="#6bc13b" class=""></path><path fill="#559b2d" d="M40 34h6v6h-6z" opacity="1" data-original="#559b2d" class=""></path><path fill="#6bc13b" d="M40 34v4h3a1 1 0 0 0 1-1v-3z" opacity="1" data-original="#6bc13b" class=""></path><path fill="#559b2d" d="M52 24h6v6h-6z" opacity="1" data-original="#559b2d" class=""></path><path fill="#6bc13b" d="M52 24v4h3a1 1 0 0 0 1-1v-3z" opacity="1" data-original="#6bc13b" class=""></path><path fill="#559b2d" d="M16 24h6v6h-6z" opacity="1" data-original="#559b2d" class=""></path><path fill="#6bc13b" d="M16 24v4h3a1 1 0 0 0 1-1v-3z" opacity="1" data-original="#6bc13b" class=""></path><path fill="#559b2d" d="M28 24h6v6h-6z" opacity="1" data-original="#559b2d" class=""></path><path fill="#6bc13b" d="M28 24v4h3a1 1 0 0 0 1-1v-3z" opacity="1" data-original="#6bc13b" class=""></path><path fill="#559b2d" d="M62 20H12V10a2 2 0 0 1 2-2h46a2 2 0 0 1 2 2z" opacity="1" data-original="#559b2d" class=""></path><path fill="#6bc13b" d="M55 16a2 2 0 0 0 2-2V8H14a2 2 0 0 0-2 2v6z" opacity="1" data-original="#6bc13b" class=""></path><path fill="#61668c" d="M20 14h-2a2 2 0 0 1-2-2V4a2 2 0 0 1 2-2h2a2 2 0 0 1 2 2v8a2 2 0 0 1-2 2z" opacity="1" data-original="#61668c"></path><path fill="#8389b2" d="M16 4v7h1a2 2 0 0 0 2-2V2h-1a2 2 0 0 0-2 2z" opacity="1" data-original="#8389b2" class=""></path><path fill="#61668c" d="M56 14h-2a2 2 0 0 1-2-2V4a2 2 0 0 1 2-2h2a2 2 0 0 1 2 2v8a2 2 0 0 1-2 2z" opacity="1" data-original="#61668c"></path><path fill="#8389b2" d="M52 4v7h1a2 2 0 0 0 2-2V2h-1a2 2 0 0 0-2 2z" opacity="1" data-original="#8389b2" class=""></path><path fill="#7bdf45" d="M36.5 14h-10a1.5 1.5 0 0 1 0-3h10a1.5 1.5 0 0 1 0 3zM43.5 14h-2a1.5 1.5 0 0 1 0-3h2a1.5 1.5 0 0 1 0 3z" opacity="1" data-original="#7bdf45"></path><path fill="#ffffff" d="m9 46-3 3 7 7 14-14-3-3-11 11z" opacity="1" data-original="#ffffff" class=""></path><path d="m32.859 44.867-1.982.266c.081.613.123 1.241.123 1.867h2c0-.714-.047-1.432-.141-2.133z" fill="#000000" opacity="1" data-original="#000000" class=""></path><path d="M60 7h-1V4c0-1.654-1.346-3-3-3h-2c-1.654 0-3 1.346-3 3v3H23V4c0-1.654-1.346-3-3-3h-2c-1.654 0-3 1.346-3 3v3h-1c-1.654 0-3 1.346-3 3v22.178C5.144 34.557 1 40.3 1 47c0 8.822 7.178 16 16 16 6.619 0 12.423-4.099 14.821-10H60c1.654 0 3-1.346 3-3V10c0-1.654-1.346-3-3-3zm-7-3c0-.551.449-1 1-1h2c.551 0 1 .449 1 1v8c0 .551-.449 1-1 1h-2c-.551 0-1-.449-1-1zM17 4c0-.551.449-1 1-1h2c.551 0 1 .449 1 1v8c0 .551-.449 1-1 1h-2c-.551 0-1-.449-1-1zm13.876 44.868C29.955 55.784 23.99 61 17 61 9.28 61 3 54.72 3 47s6.28-14 14-14c6.279 0 11.829 4.222 13.497 10.266l1.928-.531C30.518 35.825 24.175 31 17 31c-1.383 0-2.719.195-4 .527V10c0-.551.449-1 1-1h1v3c0 1.654 1.346 3 3 3h2c1.654 0 3-1.346 3-3V9h28v3c0 1.654 1.346 3 3 3h2c1.654 0 3-1.346 3-3V9h1c.551 0 1 .449 1 1v9H19v2h42v19.879l-3.186-4.46a1.002 1.002 0 0 0-.687-.411 1.029 1.029 0 0 0-.768.224l-3.36 2.8V35h6v-2h-7a1 1 0 0 0-1 1v6.698L38.638 51h-6.157c.158-.611.293-1.23.378-1.868zm25.936-10.41 3.662 5.126L43.787 51h-2.025zM60 51H48.713L61 45.539V50c0 .552-.449 1-1 1z" fill="#000000" opacity="1" data-original="#000000" class=""></path><path d="M15 19h2v2h-2zM23 30v-6a1 1 0 0 0-1-1h-6a1 1 0 0 0-1 1v6a1 1 0 0 0 1 1h6a1 1 0 0 0 1-1zm-2-1h-4v-4h4zM34 31a1 1 0 0 0 1-1v-6a1 1 0 0 0-1-1h-6a1 1 0 0 0-1 1v6a1 1 0 0 0 1 1zm-5-6h4v4h-4zM40 31h6a1 1 0 0 0 1-1v-6a1 1 0 0 0-1-1h-6a1 1 0 0 0-1 1v6a1 1 0 0 0 1 1zm1-6h4v4h-4zM52 31h6a1 1 0 0 0 1-1v-6a1 1 0 0 0-1-1h-6a1 1 0 0 0-1 1v6a1 1 0 0 0 1 1zm1-6h4v4h-4zM33 41h2v-7a1 1 0 0 0-1-1h-6v2h5zM40 41h6a1 1 0 0 0 1-1v-6a1 1 0 0 0-1-1h-6a1 1 0 0 0-1 1v6a1 1 0 0 0 1 1zm1-6h4v4h-4zM24.707 38.293a.999.999 0 0 0-1.414 0L13 48.586l-3.293-3.293a.999.999 0 0 0-1.414 0l-3 3a.999.999 0 0 0 0 1.414l7 7a.997.997 0 0 0 1.414 0l14-14a.999.999 0 0 0 0-1.414zM13 54.586 7.414 49 9 47.414l3.293 3.293a.999.999 0 0 0 1.414 0L24 40.414 25.586 42z" fill="#000000" opacity="1" data-original="#000000" class=""></path></g></svg>