<svg xmlns="http://www.w3.org/2000/svg" version="1.1" xmlns:xlink="http://www.w3.org/1999/xlink" width="512" height="512" x="0" y="0" viewBox="0 0 512 512" style="enable-background:new 0 0 512 512" xml:space="preserve" class=""><g><circle cx="267" cy="267" r="245" fill="#01d0fb" opacity="1" data-original="#01d0fb"></circle><circle cx="288.775" cy="271.622" r="200" fill="#01c0fa" opacity="1" data-original="#01c0fa"></circle><path fill="#fed402" d="M342.194 112.83V96.616c0-8.837-7.163-16-16-16H16c-8.837 0-16 7.163-16 16v16.214c0 71.738 58.155 129.894 129.894 129.894H212.3c71.738 0 129.894-58.155 129.894-129.894z" opacity="1" data-original="#fed402" class=""></path><path fill="#fef056" d="m156.925 235.438 156.925 105.88h28.344V110.433z" opacity="1" data-original="#fef056"></path><path fill="#fee903" d="M0 325.318V110.433l342.194 230.885H16c-8.837 0-16-7.163-16-16z" opacity="1" data-original="#fee903" class=""></path><path fill="#2740b0" d="M281.007 410h-23.754c-17.673 0-32-14.327-32-32V32c0-17.673 14.327-32 32-32h23.754c7.732 0 14 6.268 14 14v382c0 7.732-6.268 14-14 14z" opacity="1" data-original="#2740b0"></path><path fill="#314dc9" d="M429.478 410h-150.01c-8.837 0-16-7.163-16-16V16c0-8.837 7.163-16 16-16h150.01c17.673 0 32 14.327 32 32v346c0 17.673-14.327 32-32 32z" opacity="1" data-original="#314dc9"></path><path fill="#0172fb" d="M426.366 380h-166a8 8 0 0 1-8-8V38a8 8 0 0 1 8-8h166a8 8 0 0 1 8 8v334a8 8 0 0 1-8 8z" opacity="1" data-original="#0172fb"></path><path fill="#01c0fa" d="M359.366 70h-32c-5.523 0-10-4.477-10-10s4.477-10 10-10h32c5.523 0 10 4.477 10 10s-4.478 10-10 10zM293.325 296.106h100.081c5.523 0 10 4.477 10 10s-4.477 10-10 10H293.325c-5.523 0-10-4.477-10-10 0-5.522 4.477-10 10-10z" opacity="1" data-original="#01c0fa"></path><g fill="#99e6fc"><path d="M393.406 256.809c5.523 0 10 4.477 10 10s-4.477 10-10 10-10-4.477-10-10 4.477-10 10-10zM360.046 256.809c5.523 0 10 4.477 10 10s-4.477 10-10 10-10-4.477-10-10 4.477-10 10-10zM326.685 256.809c5.523 0 10 4.477 10 10s-4.477 10-10 10-10-4.477-10-10 4.478-10 10-10zM293.325 256.809c5.523 0 10 4.477 10 10s-4.477 10-10 10-10-4.477-10-10 4.477-10 10-10z" fill="#99e6fc" opacity="1" data-original="#99e6fc"></path></g><circle cx="343.366" cy="150.574" r="65.872" fill="#314dc9" opacity="1" data-original="#314dc9"></circle><path fill="#ffe5c2" d="M342.359 166.951h2.013c14.007 0 25.362-11.355 25.362-25.362v-10.802c0-14.007-11.355-25.362-25.362-25.362h-2.013c-14.007 0-25.362 11.355-25.362 25.362v10.802c0 14.007 11.355 25.362 25.362 25.362z" opacity="1" data-original="#ffe5c2"></path><path fill="#05e39c" d="M303.873 231.469h78.986a5 5 0 0 0 5-5v-17.737c0-16.569-13.431-30-30-30h-28.986c-16.569 0-30 13.431-30 30v17.737a5 5 0 0 0 5 5z" opacity="1" data-original="#05e39c"></path><path fill="#fea713" d="M369.859 355.404h-52.986c-5.523 0-10-4.477-10-10s4.477-10 10-10h52.986c5.523 0 10 4.477 10 10s-4.477 10-10 10z" opacity="1" data-original="#fea713"></path><path fill="#fd5426" d="M45.348 259.909c-6.873 6.873-9.088 16.986-6.114 26.24 12.816 39.882 39.27 83.132 77.651 121.514 33.279 33.279 77.48 61 112.706 75.286 9.63 3.905 13.387-1.613 20.735-8.961l.999-.999c12.523-12.523 9.17-33.714-6.694-41.59-29.635-14.712-59.82-36.326-87.488-63.994-31.466-31.466-55.103-66.188-69.661-99.654-7.278-16.734-29.231-20.745-42.134-7.842z" opacity="1" data-original="#fd5426"></path><path fill="#fe7701" d="M76.553 199.044a71.884 71.884 0 0 0-19.767 14.025c-28.118 28.118-28.118 73.706 0 101.823 28.118 28.118 73.706 28.118 101.823 0a71.877 71.877 0 0 0 14.025-19.767zM231.575 354.066a71.884 71.884 0 0 0-19.767 14.025c-28.118 28.118-28.118 73.706 0 101.823 28.118 28.118 73.706 28.118 101.823 0a71.877 71.877 0 0 0 14.025-19.767z" opacity="1" data-original="#fe7701"></path><path fill="#fea713" d="M179.215 294.287c-5.858 5.858-15.355 5.858-21.213 0l-80.61-80.61c-5.858-5.858-5.858-15.355 0-21.213 5.858-5.858 15.355-5.858 21.213 0l80.61 80.61c5.858 5.858 5.858 15.355 0 21.213zM334.237 449.309c-5.858 5.858-15.355 5.858-21.213 0l-80.61-80.61c-5.858-5.858-5.858-15.355 0-21.213 5.858-5.858 15.355-5.858 21.213 0l80.61 80.61c5.858 5.857 5.858 15.355 0 21.213z" opacity="1" data-original="#fea713"></path></g></svg>