<svg xmlns="http://www.w3.org/2000/svg" version="1.1" xmlns:xlink="http://www.w3.org/1999/xlink" width="512" height="512" x="0" y="0" viewBox="0 0 512 512" style="enable-background:new 0 0 512 512" xml:space="preserve" class=""><g><g fill-rule="evenodd" clip-rule="evenodd"><path fill="#837683" d="M394.934 50.496c9.976 0 18.113 8.137 18.113 18.113v333.28c0 9.976-8.137 18.113-18.113 18.113h-278.94c-9.976 0-18.113-8.137-18.113-18.113V68.609c0-9.976 8.137-18.113 18.113-18.113z" opacity="1" data-original="#837683"></path><path fill="#685e68" d="M371.558 420.001h23.376c9.976 0 18.113-8.137 18.113-18.113V68.609c0-9.976-8.137-18.113-18.113-18.113h-23.376z" opacity="1" data-original="#685e68" class=""></path><path fill="#eceff1" d="M379.704 75.693h-248.48c-4.486 0-8.145 3.659-8.145 8.145v302.82c0 4.486 3.659 8.145 8.145 8.145h248.48c4.486 0 8.145-3.659 8.145-8.145V83.838c0-4.486-3.658-8.145-8.145-8.145z" opacity="1" data-original="#eceff1" class=""></path><path fill="#d1d1d6" d="M371.558 394.804h8.146c.256 0 .51-.012.76-.035 4.132-.385 7.385-3.88 7.385-8.11V83.838c0-4.23-3.253-7.724-7.385-8.11a8.302 8.302 0 0 0-.76-.035h-8.146z" opacity="1" data-original="#d1d1d6"></path><path fill="#e3a76f" d="M193.874 39.548h25.818c3.325 0 6.165-1.87 7.48-4.924 4.717-10.954 15.608-18.623 28.292-18.623 12.683 0 23.575 7.669 28.292 18.623 1.315 3.054 4.156 4.924 7.48 4.924h25.818c4.486 0 8.145 3.659 8.145 8.145v30.804c0 4.486-3.659 8.145-8.145 8.145h-123.18c-4.486 0-8.145-3.659-8.145-8.145V47.693c0-4.487 3.659-8.145 8.145-8.145z" opacity="1" data-original="#e3a76f"></path><path fill="#c48958" d="m308.908 78.496-123.179.001c0 4.486 3.659 8.145 8.145 8.145h123.18c4.486 0 8.145-3.659 8.145-8.145V47.693c0-4.486-3.659-8.145-8.145-8.145V70.352c0 2.041-.757 3.91-2.005 5.342a8.136 8.136 0 0 1-6.141 2.802z" opacity="1" data-original="#c48958"></path><path fill="#ffe177" d="M163.866 300.913h45.609c3.275 0 5.954 2.679 5.954 5.954v45.609c0 3.275-2.679 5.954-5.954 5.954h-45.609c-3.275 0-5.954-2.679-5.954-5.954v-45.609c.001-3.274 2.68-5.954 5.954-5.954z" opacity="1" data-original="#ffe177" class=""></path><path fill="#ffd064" d="M197.264 300.913h12.211c3.274 0 5.954 2.679 5.954 5.954v45.609c0 3.275-2.679 5.954-5.954 5.954h-12.211c3.274 0 5.954-2.679 5.954-5.954v-45.609c0-3.274-2.679-5.954-5.954-5.954z" opacity="1" data-original="#ffd064" class=""></path><path fill="#6cf5c2" d="M163.866 208.64h45.609c3.275 0 5.954 2.679 5.954 5.954v45.609c0 3.275-2.679 5.954-5.954 5.954h-45.609c-3.275 0-5.954-2.679-5.954-5.954v-45.609c.001-3.275 2.68-5.954 5.954-5.954z" opacity="1" data-original="#6cf5c2"></path><path fill="#00e499" d="M197.264 208.64h12.211c3.274 0 5.954 2.679 5.954 5.954v45.609c0 3.275-2.679 5.954-5.954 5.954h-12.211c3.274 0 5.954-2.679 5.954-5.954v-45.609c0-3.275-2.679-5.954-5.954-5.954z" opacity="1" data-original="#00e499"></path><path fill="#8ac9fe" d="M163.866 116.367h45.609c3.275 0 5.954 2.679 5.954 5.954v45.609c0 3.275-2.679 5.954-5.954 5.954h-45.609c-3.275 0-5.954-2.679-5.954-5.954v-45.609c.001-3.275 2.68-5.954 5.954-5.954z" opacity="1" data-original="#8ac9fe"></path><path fill="#60b7ff" d="M197.264 116.367h12.211c3.274 0 5.954 2.679 5.954 5.954v45.609c0 3.275-2.679 5.954-5.954 5.954h-12.211c3.274 0 5.954-2.679 5.954-5.954v-45.609c0-3.275-2.679-5.954-5.954-5.954z" opacity="1" data-original="#60b7ff"></path><path fill="#ffe177" d="m353.269 198.681 99.802-172.863c5.41-9.371 17.466-12.601 26.837-7.191l6.806 3.929c9.371 5.41 12.602 17.466 7.191 26.837l-99.802 172.863-33.794 19.511c-1.492.862-3.201.862-4.693 0-1.492-.861-2.347-2.341-2.347-4.065z" opacity="1" data-original="#ffe177" class=""></path><path fill="#ffd064" d="M490.773 25.67c6.13 6.133 7.665 15.87 3.132 23.723l-99.802 172.863-25.243 14.574z" opacity="1" data-original="#ffd064" class=""></path><path fill="#685e68" d="M353.269 237.702v-39.021l40.834 23.576-33.794 19.511c-1.492.862-3.201.862-4.693 0-1.493-.863-2.347-2.342-2.347-4.066z" opacity="1" data-original="#685e68" class=""></path><circle cx="118.382" cy="393.083" r="102.918" fill="#8ac9fe" transform="rotate(-45 118.32 393.134)" opacity="1" data-original="#8ac9fe"></circle><path fill="#60b7ff" d="M118.382 290.165c56.839 0 102.918 46.079 102.918 102.918s-46.079 102.918-102.918 102.918c-1.677 0-3.343-.043-5-.122 54.516-2.609 97.918-47.633 97.918-102.796s-43.402-100.187-97.918-102.796c1.657-.079 3.324-.122 5-.122z" opacity="1" data-original="#60b7ff"></path><path fill="#242222" d="M110.915 393.085v-49.396a8 8 0 1 1 15.999 0v41.438l35.857.202a8 8 0 0 1 7.955 8.048c-.023 4.401-3.601 7.953-7.999 7.953h-.046l-43.812-.249a7.994 7.994 0 0 1-7.954-7.996zm-57.062 0a7.999 7.999 0 0 1-7.999 7.996h-8.883a7.998 7.998 0 1 1 0-15.997h8.883a8 8 0 0 1 7.999 8.001zm73.061 73.055v8.885a8 8 0 1 1-15.999 0v-8.885c0-4.414 3.581-8.001 7.999-8.001s8 3.586 8 8.001zm57.061-73.055a7.998 7.998 0 0 1 7.999-8.001h8.883a8 8 0 0 1 0 15.997h-8.883a7.997 7.997 0 0 1-7.999-7.996zM72.91 335.764a8.003 8.003 0 0 1-5.657 13.658 7.973 7.973 0 0 1-5.658-2.344l-6.28-6.278a8.003 8.003 0 0 1 0-11.314 7.998 7.998 0 0 1 11.313 0zm0 103.325a8.003 8.003 0 0 1 0 11.314l-6.282 6.278c-1.562 1.563-3.609 2.344-5.657 2.344s-4.094-.781-5.657-2.344a8.003 8.003 0 0 1 0-11.314l6.28-6.278a8.001 8.001 0 0 1 11.316 0zm109.603 6.277a8 8 0 0 1-11.315 11.314l-6.28-6.278a7.999 7.999 0 0 1 0-11.314 7.998 7.998 0 0 1 11.313 0zm-17.595-98.288a7.97 7.97 0 0 0 5.656 2.344 7.976 7.976 0 0 0 5.657-2.344l6.281-6.278a8 8 0 0 0-11.315-11.314l-6.28 6.278a8 8 0 0 0 .001 11.314zm-54.003-27.056v-8.881a8 8 0 1 1 15.999 0v8.881a8 8 0 1 1-15.999 0zM486.48 44.893l-94.316 163.371-26.371-15.225 94.321-163.371c1.509-2.612 3.958-4.485 6.897-5.276 2.94-.786 5.999-.391 8.613 1.12l6.706 3.873c5.42 3.13 7.284 10.091 4.15 15.508zM362.863 209.821l16.227 9.37-16.227 9.37zM503.055 32.143c-1.892-7.069-6.414-12.971-12.726-16.613l-6.706-3.873c-13.063-7.539-29.825-3.049-37.368 10.01l-98.319 170.298a8.09 8.09 0 0 0-.426.861c-.033.075-.061.155-.09.236a8.153 8.153 0 0 0-.488 1.864c-.042.32-.062.645-.064.969 0 .023-.004.047-.004.071v46.45a7.996 7.996 0 0 0 4 6.928 7.986 7.986 0 0 0 7.998 0l40.157-23.183a.1.1 0 0 0 .026-.019l.044-.024c.084-.047.16-.108.242-.16.206-.132.415-.263.61-.409.087-.066.164-.141.246-.212.186-.155.372-.306.543-.475.103-.104.191-.217.286-.325.138-.151.28-.296.406-.461a8.04 8.04 0 0 0 .594-.885L500.34 52.893c3.647-6.311 4.612-13.686 2.715-20.75zM207.961 165.884h-41.515v-41.513h41.515zm16.001-43.561c0-7.695-6.261-13.954-13.955-13.954h-45.608c-7.693 0-13.953 6.259-13.953 13.954v45.608c0 7.695 6.259 13.954 13.953 13.954h45.608c7.694 0 13.955-6.259 13.955-13.954zm-16.001 135.831h-41.515v-41.513h41.515zm2.046-57.515h-45.608c-7.693 0-13.953 6.259-13.953 13.954v45.608c0 7.695 6.259 13.954 13.953 13.954h45.608c7.694 0 13.955-6.259 13.955-13.954v-45.608c0-7.694-6.261-13.954-13.955-13.954zm132.857 20.35a7.997 7.997 0 0 1-8 8.001h-82.559a7.997 7.997 0 0 1-8.001-8.001c0-4.414 3.581-8 8.001-8h82.559c4.419-.001 8 3.586 8 8zm18.683-92.27a8.001 8.001 0 0 1-8.001 8.001H252.304a8 8 0 0 1-8.001-8.001 8 8 0 0 1 8.001-8h101.242a8 8 0 0 1 8.001 8zm0 217.356a8 8 0 0 1-8.001 8H252.304a8 8 0 1 1 0-16h101.242a8.004 8.004 0 0 1 8.001 8zm-9.898-176.544h-99.345a8 8 0 0 1-8.001-8.001 8 8 0 0 1 8.001-8h99.345a8 8 0 0 1 7.999 8 8 8 0 0 1-7.999 8.001zm-107.345 84.274a8 8 0 0 1 8.001-8.001h82.559c4.419 0 8 3.581 8 8.001a8 8 0 0 1-8 8.001h-82.559a8 8 0 0 1-8.001-8.001zm117.243 59.458a8.001 8.001 0 0 1-8.001 8.001H252.304a8 8 0 0 1-8.001-8.001 8 8 0 0 1 8.001-8h101.242a8 8 0 0 1 8.001 8zM264.141 41.245a8.146 8.146 0 1 1-8.145-8.146 8.146 8.146 0 0 1 8.145 8.146zM118.913 488c52.338 0 94.918-42.577 94.918-94.915s-42.58-94.919-94.918-94.919-94.918 42.582-94.918 94.919c0 52.338 42.58 94.915 94.918 94.915zM106.412 68.612v214.264c3.032-.344 6.1-.565 9.199-.659V75.695a8 8 0 0 1 7.999-8.001h54.651v-9.2h-61.736c-5.576-.001-10.113 4.536-10.113 10.118zm87.848-21.065v31.094h123.47V47.547h-31.802a8 8 0 0 1-7.778-6.123c-2.473-10.26-11.583-17.423-22.154-17.423s-19.682 7.163-22.156 17.423a8 8 0 0 1-7.777 6.123zm13.701 261.363v18.119a111.96 111.96 0 0 0-16.895-18.119zm205.617-85.3a8 8 0 0 0-8.001 8.001v170.275c0 5.577-4.537 10.114-10.113 10.114H228.211c.522-3.026.919-6.09 1.189-9.196h158.98a8 8 0 0 0 8-8.001V246.158a8 8 0 1 0-15.999 0v140.645H229.65a110.15 110.15 0 0 0-6.173-30.717c.314-1.172.485-2.377.485-3.61v-45.608c0-7.695-6.261-13.958-13.955-13.958h-43.49a110.12 110.12 0 0 0-34.907-10.015v-199.2h46.65v2.946a8 8 0 0 0 8.001 8.001H325.73a8.002 8.002 0 0 0 8.001-8.001v-2.946h46.65v14.217a8 8 0 1 0 15.999 0V75.695a8 8 0 0 0-8-8.001h-54.649v-9.2h61.733c3.499 0 6.707 1.788 8.584 4.786a7.992 7.992 0 0 0 11.024 2.532 8 8 0 0 0 2.535-11.026c-4.82-7.695-13.098-12.288-22.143-12.288h-61.733v-2.946c0-4.424-3.583-8-8.001-8h-34.047C285.685 17.413 271.8 8 255.996 8s-29.689 9.413-35.688 23.55h-34.046a7.997 7.997 0 0 0-8.001 8v2.946h-61.736c-14.398 0-26.112 11.714-26.112 26.115v217.271C43.018 298.496 7.996 341.774 7.996 393.085c0 61.157 49.757 110.916 110.918 110.916 48.965 0 90.616-31.894 105.283-76.001h171.268c14.398 0 26.115-11.714 26.115-26.115V231.611a8.003 8.003 0 0 0-8.002-8.001z" opacity="1" data-original="#242222" class=""></path></g></g></svg>