<svg xmlns="http://www.w3.org/2000/svg" version="1.1" xmlns:xlink="http://www.w3.org/1999/xlink" width="512" height="512" x="0" y="0" viewBox="0 0 1707 1707" style="enable-background:new 0 0 512 512" xml:space="preserve" fill-rule="evenodd" class=""><g><path fill="#333333" d="M1221 921H256c-35 0-35-53 0-53h965c35 0 35 53 0 53zm395-320h-203v1079c0 20-22 34-40 23l-148-89-149 89c-8 5-19 5-27 0l-148-89-149 89c-4 2-9 3-14 3-4 0-9-1-13-3l-149-89-148 89c-8 5-19 5-27 0l-149-89-148 89c-18 10-40-2-40-23V27C64 12 76 0 91 0h1309c134 0 243 109 243 242v332c-1 15-12 27-27 27zm-256-21V53H117v1580l122-72c4-3 9-4 14-4 4 0 9 1 13 4l149 88 148-88c8-5 19-5 27 0l149 88 148-88c8-5 19-5 27 0l149 88 148-88c8-5 19-5 27 0l122 72zm53-32h176V243c0-100-78-183-176-189zm-675 975c-144 0-262-118-262-262 0-145 118-262 262-262 145 0 262 117 262 262 0 144-117 262-262 262zm0-472c-115 0-209 94-209 209 0 116 94 209 209 209 116 0 209-94 209-209 1-115-93-209-209-209zm-47 319c-7 0-14-3-19-8l-70-70c-25-25 13-62 37-38l52 52 147-147c25-24 62 13 37 38l-165 165c-6 5-12 8-19 8zm20-846c-64-20-81-110-35-110 15 0 27 12 27 26 0 47 71 47 71 0 0-19-16-35-36-35-48 0-88-40-88-89 0-39 26-72 61-84 0-7 1-15 1-21 0-35 53-35 53 0v21c64 21 82 111 35 111-14 0-26-12-26-27 0-46-71-46-71 0 0 20 16 36 35 36 49 0 89 39 89 88 0 39-26 73-62 84 1 25-1 49-27 49-25 0-27-24-27-49zM480 299H256c-35 0-35-53 0-53h224c35 0 35 53 0 53zm0 212H256c-35 0-35-52 0-52h224c35 0 35 52 0 52zm741-212H997c-35 0-35-53 0-53h224c34 0 35 53 0 53zm0 212H997c-35 0-35-52 0-52h224c34 0 35 52 0 52zm0 199H256c-35 0-35-53 0-53h965c35 0 35 53 0 53z" opacity="1" data-original="#333333" class=""></path><path fill="#1aa1ff" d="M947 1260c1-115-93-209-209-209-115 0-209 94-209 209 0 116 94 209 209 209 116 0 209-94 209-209zm-308-6 52 52 147-147c25-24 62 13 37 38l-165 165c-6 5-12 8-19 8s-14-3-19-8l-70-70c-25-25 13-62 37-38z" opacity="1" data-original="#1aa1ff"></path><path fill="#ffe4af" d="M738 999c145 0 262 117 262 262 0 144-117 262-262 262-144 0-262-118-262-262 0-145 118-262 262-262zm483-78H256c-35 0-35-53 0-53h965c35 0 35 53 0 53zm139 712V53H117v1580l122-72c4-3 9-4 14-4 4 0 9 1 13 4l149 88 148-88c8-5 19-5 27 0l149 88 148-88c8-5 19-5 27 0l149 88 148-88c8-5 19-5 27 0zm-139-923H256c-35 0-35-53 0-53h965c35 0 35 53 0 53zM738 573c-25 0-27-24-27-49-64-20-81-110-35-110 15 0 27 12 27 26 0 47 71 47 71 0 0-19-16-35-36-35-48 0-88-40-88-89 0-39 26-72 61-84 0-7 1-15 1-21 0-35 53-35 53 0v21c64 21 82 111 35 111-14 0-26-12-26-27 0-46-71-46-71 0 0 20 16 36 35 36 49 0 89 39 89 88 0 39-26 73-62 84 1 25-1 49-27 49zM480 299H256c-35 0-35-53 0-53h224c35 0 35 53 0 53zm0 212H256c-35 0-35-52 0-52h224c35 0 35 52 0 52zm741 0H997c-35 0-35-52 0-52h224c34 0 35 52 0 52zm0-212H997c-35 0-35-53 0-53h224c34 0 35 53 0 53z" opacity="1" data-original="#ffe4af" class=""></path><path fill="#ffa721" d="M1413 54v494h176V243c0-100-78-183-176-189z" opacity="1" data-original="#ffa721"></path></g></svg>