<svg xmlns="http://www.w3.org/2000/svg" version="1.1" xmlns:xlink="http://www.w3.org/1999/xlink" width="512" height="512" x="0" y="0" viewBox="0 0 128 128" style="enable-background:new 0 0 512 512" xml:space="preserve" class=""><g><path fill="#ecebfd" d="M99.973 7.182H28.027a5.771 5.771 0 0 0-5.771 5.771V107.6a5.082 5.082 0 0 0 1.979 4.025l11.929 9.193L50.075 110.1l13.915 10.718L77.9 110.1l13.921 10.719 11.94-9.193a5.083 5.083 0 0 0 1.981-4.026V12.953a5.771 5.771 0 0 0-5.769-5.771Z" opacity="1" data-original="#ecebfd" class=""></path><path fill="#fdcb71" d="M64 40.023c-.521 0-1.041.03-1.542.079a14.212 14.212 0 0 0 0 28.256 13.254 13.254 0 0 0 1.542.088 14.212 14.212 0 1 0 0-28.423Z" opacity="1" data-original="#fdcb71"></path><path d="M61.21 57.377a1.75 1.75 0 0 0 0 3.5h1.038V62.3a1.75 1.75 0 0 0 3.5 0v-1.457a3.115 3.115 0 0 0 2.788-3.087V55.6a3.125 3.125 0 0 0-3.121-3.121H62.96v-1.4h3.826a1.75 1.75 0 0 0 0-3.5h-1.038v-1.417a1.75 1.75 0 0 0-3.5 0v1.456a3.115 3.115 0 0 0-2.788 3.088v2.154a3.124 3.124 0 0 0 3.121 3.121h2.455v1.4Z" fill="#000000" opacity="1" data-original="#000000" class=""></path><path d="M48.038 54.23A15.962 15.962 0 1 0 64 38.273 15.931 15.931 0 0 0 48.038 54.23ZM64 41.773A12.462 12.462 0 1 1 51.538 54.23 12.476 12.476 0 0 1 64 41.773ZM22.26 41.36a1.749 1.749 0 0 0 1.75-1.75v-4.99a1.75 1.75 0 0 0-3.5 0v4.99a1.749 1.749 0 0 0 1.75 1.75ZM94.07 116.874l-2.251 1.736-12.851-9.9a1.747 1.747 0 0 0-2.136 0l-12.842 9.9-12.852-9.9a1.747 1.747 0 0 0-2.136 0l-12.841 9.9-10.855-8.378a3.3 3.3 0 0 1-1.3-2.633V48.73a1.75 1.75 0 0 0-3.5 0v58.87a6.77 6.77 0 0 0 2.661 5.407l11.92 9.2a1.75 1.75 0 0 0 2.138 0l12.841-9.9 12.853 9.9a1.751 1.751 0 0 0 2.136 0l12.841-9.9 12.853 9.9a1.751 1.751 0 0 0 2.137 0l3.319-2.561a1.75 1.75 0 1 0-2.139-2.771Z" fill="#000000" opacity="1" data-original="#000000" class=""></path><path d="M99.97 5.429H28.03a7.529 7.529 0 0 0-7.52 7.521v12.569a1.75 1.75 0 0 0 3.5 0V12.95a4.025 4.025 0 0 1 4.02-4.021h71.94a4.025 4.025 0 0 1 4.02 4.021v94.65a3.315 3.315 0 0 1-1.3 2.636l-1.37 1.06a1.75 1.75 0 1 0 2.141 2.769l1.369-1.058a6.84 6.84 0 0 0 2.661-5.407V12.95a7.529 7.529 0 0 0-7.521-7.521Z" fill="#000000" opacity="1" data-original="#000000" class=""></path><path d="M53.259 18.708a1.75 1.75 0 1 0 0-3.5H46.29a1.749 1.749 0 0 0-1.75 1.75v14.3a1.75 1.75 0 0 0 3.5 0v-5.4h5.219a1.75 1.75 0 0 0 0-3.5H48.04v-3.65ZM67.484 18.708a1.75 1.75 0 1 0 0-3.5h-6.968a1.749 1.749 0 0 0-1.75 1.75v14.3a1.749 1.749 0 0 0 1.75 1.75h6.968a1.75 1.75 0 0 0 0-3.5h-5.218v-3.649h5.218a1.75 1.75 0 0 0 0-3.5h-5.218v-3.651ZM81.71 18.708a1.75 1.75 0 1 0 0-3.5h-6.969a1.749 1.749 0 0 0-1.75 1.75v14.3a1.749 1.749 0 0 0 1.75 1.75h6.969a1.75 1.75 0 0 0 0-3.5h-5.219v-3.649h5.219a1.75 1.75 0 0 0 0-3.5h-5.219v-3.651ZM33.75 77.5a1.749 1.749 0 0 0 1.75 1.75h29.429a1.75 1.75 0 0 0 0-3.5H35.5a1.749 1.749 0 0 0-1.75 1.75ZM92.5 75.75H77.8a1.75 1.75 0 0 0 0 3.5h14.7a1.75 1.75 0 0 0 0-3.5ZM35.5 88.678h29.429a1.75 1.75 0 0 0 0-3.5H35.5a1.75 1.75 0 0 0 0 3.5ZM92.5 85.178H77.8a1.75 1.75 0 0 0 0 3.5h14.7a1.75 1.75 0 0 0 0-3.5ZM35.5 98.107h29.429a1.75 1.75 0 0 0 0-3.5H35.5a1.75 1.75 0 0 0 0 3.5ZM92.5 94.607H77.8a1.75 1.75 0 0 0 0 3.5h14.7a1.75 1.75 0 0 0 0-3.5Z" fill="#000000" opacity="1" data-original="#000000" class=""></path></g></svg>