<svg xmlns="http://www.w3.org/2000/svg" version="1.1" xmlns:xlink="http://www.w3.org/1999/xlink" width="512" height="512" x="0" y="0" viewBox="0 0 512.006 512.006" style="enable-background:new 0 0 512 512" xml:space="preserve" class=""><g><path fill="#f07281" d="M463.499 172.997H324.474v269.994h-68.471v32.999h207.496c6.075 0 11-4.925 11-11V183.997c0-6.075-4.925-11-11-11z" opacity="1" data-original="#f07281"></path><path fill="#f58a97" d="M169.455 442.991V172.997H28.508c-6.075 0-11 4.925-11 11v280.994c0 6.075 4.925 11 11 11h227.495v-32.999h-86.548z" opacity="1" data-original="#f58a97"></path><path fill="#eb5569" d="M483.498 172.997h-24c6.075 0 11 4.925 11 11v280.994c0 6.075-4.925 11-11 11h24c6.075 0 11-4.925 11-11V183.997c0-6.075-4.925-11-11-11z" opacity="1" data-original="#eb5569"></path><path fill="#dff6fd" d="M439.999 433.991V153.997a9 9 0 0 0-9-9H274.003c-9.941 0-18 8.058-18 18v279.994h174.996a9 9 0 0 0 9-9z" opacity="1" data-original="#dff6fd" class=""></path><path fill="#f2fbff" d="M256.003 442.991H61.007a9 9 0 0 1-9-9V153.997a9 9 0 0 1 9-9h176.996c9.941 0 18 8.059 18 18z" opacity="1" data-original="#f2fbff" class=""></path><path fill="#c8effe" d="M450.999 144.997h-24a9 9 0 0 1 9 9v279.994a9 9 0 0 1-9 9h24a9 9 0 0 0 9-9V153.997a9 9 0 0 0-9-9z" opacity="1" data-original="#c8effe" class=""></path><path fill="#99e6fc" d="M91.954 457.404v38.08a9.006 9.006 0 0 0 9.006 9.006h16.79a9.006 9.006 0 0 0 9.006-9.006v-38.08z" opacity="1" data-original="#99e6fc"></path><path fill="#ffcebf" d="m107.355 257.826-15.401 27.777h34.802l-15.401-27.777z" opacity="1" data-original="#ffcebf"></path><path fill="#7bacdf" d="M91.954 285.603h34.802v171.801H91.954z" opacity="1" data-original="#7bacdf"></path><path fill="#5f99d7" d="M122.756 285.603h20v171.801h-20z" opacity="1" data-original="#5f99d7"></path><path fill="#ffb09e" d="M120.225 244.968a3.252 3.252 0 0 0-5.742 0l-7.129 12.858 15.401 27.777h20z" opacity="1" data-original="#ffb09e"></path><path fill="#62dbfb" d="M122.756 457.404v38.08a9.006 9.006 0 0 1-9.006 9.006h20a9.006 9.006 0 0 0 9.006-9.006v-38.08z" opacity="1" data-original="#62dbfb"></path><g fill="#ffe177"><path d="M244.965 8.199zM244.003 8.314l.075.012c1.273-.171 1.11-.174-.075-.012zM246.029 8.072z" fill="#ffe177" opacity="1" data-original="#ffe177" class=""></path><path d="m248.003 205.049 11.659-23.812c37.373-10.347 64.812-44.6 64.812-85.266 0-44.764-33.248-81.756-76.395-87.645-35.306 0-80.546 34.875-80.546 87.645 0 40.666 27.439 74.919 64.812 85.266l11.659 23.812z" fill="#ffe177" opacity="1" data-original="#ffe177" class=""></path></g><path fill="#ffd15b" d="M244.003 8.314c43.184 5.856 76.471 42.867 76.471 87.657 0 40.666-27.439 74.919-64.812 85.266l-11.659 23.812 6.182 12.626c2.369 4.839 9.267 4.839 11.636 0l17.841-36.438c37.373-10.347 64.812-44.6 64.812-85.266-.001-53.444-47.112-94.9-100.471-87.657z" opacity="1" data-original="#ffd15b"></path><path fill="#fff6ce" d="M282.199 145.156h-52.392a6.242 6.242 0 0 1-6.242-6.242V92.731h64.876v46.183a6.242 6.242 0 0 1-6.242 6.242z" opacity="1" data-original="#fff6ce" class=""></path><path fill="#f07281" d="M209.057 101.714h93.892c2.715 0 4.034-3.319 2.058-5.182l-46.946-44.278a3 3 0 0 0-4.117 0l-46.946 44.278c-1.974 1.862-.656 5.182 2.059 5.182z" opacity="1" data-original="#f07281"></path><path d="M416.024 205.797H299.979c-4.143 0-7.5 3.357-7.5 7.5s3.357 7.5 7.5 7.5h116.045c4.143 0 7.5-3.357 7.5-7.5s-3.358-7.5-7.5-7.5zM416.024 262.462H299.979c-4.143 0-7.5 3.357-7.5 7.5s3.357 7.5 7.5 7.5h116.045c4.143 0 7.5-3.357 7.5-7.5s-3.358-7.5-7.5-7.5zM416.024 319.128H299.979c-4.143 0-7.5 3.357-7.5 7.5s3.357 7.5 7.5 7.5h116.045c4.143 0 7.5-3.357 7.5-7.5s-3.358-7.5-7.5-7.5zM416.024 375.793H299.979c-4.143 0-7.5 3.357-7.5 7.5s3.357 7.5 7.5 7.5h116.045c4.143 0 7.5-3.357 7.5-7.5s-3.358-7.5-7.5-7.5z" fill="#000000" opacity="1" data-original="#000000" class=""></path><path d="M483.498 165.497h-15.999v-11.5c0-9.099-7.402-16.5-16.5-16.5H342.463c6.113-12.686 9.511-26.812 9.511-41.526C351.974 42.742 308.973 0 256.016 0h-.013c-25.833 0-50.065 10.115-68.234 28.483a7.5 7.5 0 0 0 .058 10.606 7.5 7.5 0 0 0 10.606-.058C213.762 23.535 234.208 15 256.004 15c46.15.263 80.97 37.213 80.97 80.971 0 36.32-24.449 68.388-59.313 78.038a7.504 7.504 0 0 0-4.735 3.931l-16.923 34.563-16.923-34.563a7.507 7.507 0 0 0-4.735-3.931c-34.665-9.596-59.313-41.507-59.313-78.038 0-10.509 1.98-20.728 5.887-30.373a7.5 7.5 0 0 0-4.136-9.767 7.496 7.496 0 0 0-9.767 4.136c-4.635 11.443-6.984 23.557-6.984 36.004 0 14.714 3.398 28.841 9.511 41.526H61.007c-9.098 0-16.5 7.401-16.5 16.5v11.5H28.508c-10.201 0-18.5 8.299-18.5 18.5v280.994c0 10.2 8.299 18.499 18.5 18.499h55.945v11.994c0 8.533 6.509 15.574 14.822 16.42 1.375.14 34.887.13 36.16 0 8.313-.847 14.821-7.888 14.821-16.42V483.49h231.117c4.143 0 7.5-3.357 7.5-7.5s-3.357-7.5-7.5-7.5h-117.87v-17.999h187.496c9.095 0 16.5-7.399 16.5-16.5V180.497h15.999c1.93 0 3.5 1.57 3.5 3.5v280.994c0 1.93-1.57 3.499-3.5 3.499h-67.126c-4.143 0-7.5 3.357-7.5 7.5s3.357 7.5 7.5 7.5h67.126c10.201 0 18.5-8.299 18.5-18.499V183.997c0-10.201-8.299-18.5-18.5-18.5zm-423.991-11.5c0-.827.673-1.5 1.5-1.5h117.451c12.017 16.466 29.073 28.823 48.597 34.994l16.394 33.481.001.002a14.052 14.052 0 0 0 5.054 5.667v208.85h-98.248V285.603a7.669 7.669 0 0 0-.94-3.637l-22.53-40.638c-4.134-7.449-14.733-7.442-18.86.002l-22.53 40.636a7.668 7.668 0 0 0-.94 3.637v149.888H61.007c-.827 0-1.5-.673-1.5-1.5V153.997zm70.514 124.107h-25.334l12.667-22.847zm-30.568 15h35.802v156.801H99.453V293.104zM28.508 468.49c-1.93 0-3.5-1.569-3.5-3.499V183.997c0-1.93 1.57-3.5 3.5-3.5h15.999v253.494c0 9.065 7.423 16.5 16.5 16.5h23.446v17.999zm106.747 26.993c0 .834-.678 1.507-1.506 1.507H100.96a1.509 1.509 0 0 1-1.507-1.507v-30.579h35.802zm15-44.992h98.248v17.999h-98.248v-17.999zm302.244-16.5c0 .827-.673 1.5-1.5 1.5H263.503v-208.85c2.13-1.35 3.913-3.34 5.055-5.669l16.394-33.481c18.818-5.948 36.153-17.944 48.597-34.994H451c.827 0 1.5.673 1.5 1.5l-.001 279.994z" fill="#000000" opacity="1" data-original="#000000" class=""></path><path d="M229.807 152.656H282.2c7.577 0 13.742-6.165 13.742-13.742v-29.7h7.008c9.49 0 14.108-11.626 7.204-18.139l-46.945-44.276c-4.041-3.813-10.369-3.812-14.41-.001l-46.944 44.277c-6.904 6.51-2.289 18.139 7.203 18.139h7.008v29.7c-.001 7.577 6.164 13.742 13.741 13.742zm51.134-15h-49.877v-28.442h49.877zm-24.938-77.034 35.616 33.592h-71.232z" fill="#000000" opacity="1" data-original="#000000" class=""></path></g></svg>