<svg xmlns="http://www.w3.org/2000/svg" version="1.1" xmlns:xlink="http://www.w3.org/1999/xlink" width="512" height="512" x="0" y="0" viewBox="0 0 512 512" style="enable-background:new 0 0 512 512" xml:space="preserve" class=""><g><g fill-rule="evenodd" clip-rule="evenodd"><path fill="#eceff1" d="M387.272 44.162c17.938 0 32.568 14.63 32.568 32.568v225.067c0 8.969-3.197 16.687-9.539 23.029l-49.314 49.315c-6.342 6.342-14.06 9.539-23.029 9.539H48.567C30.629 383.678 16 369.048 16 351.11V76.729c0-17.938 14.63-32.568 32.568-32.568h338.704z" opacity="1" data-original="#eceff1"></path><path fill="#d1d1d6" d="M387.272 44.162c17.938 0 32.568 14.63 32.568 32.568v225.067c0 8.969-3.197 16.686-9.539 23.029h-15.702V76.729c0-17.937-14.63-32.568-32.568-32.568h25.241z" opacity="1" data-original="#d1d1d6"></path><path fill="#d1d1d6" d="M351.448 323.428v57.427c3.459-1.579 6.642-3.82 9.539-6.716l49.314-49.314c2.896-2.897 5.137-6.08 6.716-9.539H359.59c-4.485 0-8.142 3.658-8.142 8.142z" opacity="1" data-original="#d1d1d6"></path><path fill="#b1b1b5" d="m394.599 340.527 15.702-15.702c2.896-2.897 5.137-6.08 6.716-9.539h-22.418z" opacity="1" data-original="#b1b1b5"></path><path fill="#d1d1d6" d="M15.999 115.237h403.84V76.729c0-17.937-14.63-32.568-32.568-32.568H48.567C30.629 44.162 16 58.792 16 76.729z" opacity="1" data-original="#d1d1d6"></path><path fill="#b1b1b5" d="M394.599 115.237h25.241V76.729c0-17.937-14.63-32.568-32.568-32.568h-25.241c17.938 0 32.568 14.63 32.568 32.568z" opacity="1" data-original="#b1b1b5"></path><path fill="#fe646f" d="M111.179 164.712H80.402c-4.634 0-8.413 3.779-8.413 8.413v30.777c0 4.634 3.779 8.413 8.413 8.413h30.777c4.634 0 8.413-3.779 8.413-8.413v-30.777c0-4.633-3.779-8.413-8.413-8.413z" opacity="1" data-original="#fe646f"></path><path fill="#fd4755" d="m111.179 164.712-.001 30.777c0 4.634-3.779 8.413-8.413 8.413H71.989c0 4.634 3.779 8.413 8.413 8.413h30.777c4.634 0 8.413-3.779 8.413-8.413v-30.777c0-4.633-3.779-8.413-8.413-8.413z" opacity="1" data-original="#fd4755"></path><path fill="#fe646f" d="M172.244 164.712h-30.777c-4.634 0-8.413 3.779-8.413 8.413v30.777c0 4.634 3.779 8.413 8.413 8.413h30.777c4.634 0 8.413-3.779 8.413-8.413v-30.777c0-4.633-3.78-8.413-8.413-8.413z" opacity="1" data-original="#fe646f"></path><path fill="#fd4755" d="m172.244 164.712-.001 30.777c0 4.634-3.779 8.413-8.413 8.413h-30.777c0 4.634 3.779 8.413 8.413 8.413h30.777c4.634 0 8.413-3.779 8.413-8.413v-30.777c.001-4.633-3.779-8.413-8.412-8.413z" opacity="1" data-original="#fd4755"></path><path fill="#8ac9fe" d="M233.308 164.712h-30.777c-4.634 0-8.413 3.779-8.413 8.413v30.777c0 4.634 3.779 8.413 8.413 8.413h30.777c4.634 0 8.413-3.779 8.413-8.413v-30.777c0-4.633-3.779-8.413-8.413-8.413z" opacity="1" data-original="#8ac9fe" class=""></path><path fill="#60b7ff" d="m233.308 164.712-.001 30.777c0 4.634-3.779 8.413-8.413 8.413h-30.777c0 4.634 3.779 8.413 8.413 8.413h30.777c4.634 0 8.413-3.779 8.413-8.413v-30.777c.001-4.633-3.778-8.413-8.412-8.413z" opacity="1" data-original="#60b7ff"></path><path fill="#8ac9fe" d="M294.372 164.712h-30.777c-4.634 0-8.413 3.779-8.413 8.413v30.777c0 4.634 3.779 8.413 8.413 8.413h30.777c4.634 0 8.413-3.779 8.413-8.413v-30.777c.001-4.633-3.779-8.413-8.413-8.413z" opacity="1" data-original="#8ac9fe" class=""></path><path fill="#60b7ff" d="m294.372 164.712-.001 30.777c0 4.634-3.779 8.413-8.413 8.413h-30.777c0 4.634 3.779 8.413 8.413 8.413h30.777c4.634 0 8.413-3.779 8.413-8.413v-30.777c.002-4.633-3.778-8.413-8.412-8.413z" opacity="1" data-original="#60b7ff"></path><path fill="#8ac9fe" d="M355.437 164.712H324.66c-4.634 0-8.413 3.779-8.413 8.413v30.777c0 4.634 3.78 8.413 8.413 8.413h30.777c4.634 0 8.413-3.779 8.413-8.413v-30.777c0-4.633-3.779-8.413-8.413-8.413z" opacity="1" data-original="#8ac9fe" class=""></path><path fill="#60b7ff" d="M355.437 164.712v30.777c0 4.634-3.779 8.413-8.413 8.413h-30.776c0 4.634 3.78 8.413 8.413 8.413h30.777c4.634 0 8.413-3.779 8.413-8.413v-30.777c-.001-4.633-3.78-8.413-8.414-8.413z" opacity="1" data-original="#60b7ff"></path><path fill="#8ac9fe" d="M355.437 225.777H324.66c-4.634 0-8.413 3.779-8.413 8.413v30.777c0 4.634 3.78 8.413 8.413 8.413h30.777c4.634 0 8.413-3.779 8.413-8.413V234.19c0-4.634-3.779-8.413-8.413-8.413z" opacity="1" data-original="#8ac9fe" class=""></path><path fill="#60b7ff" d="M355.437 225.777v30.777c0 4.634-3.779 8.413-8.413 8.413h-30.776c0 4.634 3.78 8.413 8.413 8.413h30.777c4.634 0 8.413-3.779 8.413-8.413V234.19c-.001-4.634-3.78-8.413-8.414-8.413z" opacity="1" data-original="#60b7ff"></path><path fill="#8ac9fe" d="M294.372 225.777h-30.777c-4.634 0-8.413 3.779-8.413 8.413v30.777c0 4.634 3.779 8.413 8.413 8.413h30.777c4.634 0 8.413-3.779 8.413-8.413V234.19c.001-4.634-3.779-8.413-8.413-8.413z" opacity="1" data-original="#8ac9fe" class=""></path><path fill="#60b7ff" d="m294.372 225.777-.001 30.777c0 4.634-3.779 8.413-8.413 8.413h-30.777c0 4.634 3.779 8.413 8.413 8.413h30.777c4.634 0 8.413-3.779 8.413-8.413V234.19c.002-4.634-3.778-8.413-8.412-8.413z" opacity="1" data-original="#60b7ff"></path><path fill="#8ac9fe" d="M233.308 225.777h-30.777c-4.634 0-8.413 3.779-8.413 8.413v30.777c0 4.634 3.779 8.413 8.413 8.413h30.777c4.634 0 8.413-3.779 8.413-8.413V234.19c0-4.634-3.779-8.413-8.413-8.413z" opacity="1" data-original="#8ac9fe" class=""></path><path fill="#60b7ff" d="m233.308 225.777-.001 30.777c0 4.634-3.779 8.413-8.413 8.413h-30.777c0 4.634 3.779 8.413 8.413 8.413h30.777c4.634 0 8.413-3.779 8.413-8.413V234.19c.001-4.634-3.778-8.413-8.412-8.413z" opacity="1" data-original="#60b7ff"></path><path fill="#fe646f" d="M172.244 225.777h-30.777c-4.634 0-8.413 3.779-8.413 8.413v30.777c0 4.634 3.779 8.413 8.413 8.413h30.777c4.634 0 8.413-3.779 8.413-8.413V234.19c0-4.634-3.78-8.413-8.413-8.413z" opacity="1" data-original="#fe646f"></path><path fill="#fd4755" d="m172.244 225.777-.001 30.777c0 4.634-3.779 8.413-8.413 8.413h-30.777c0 4.634 3.779 8.413 8.413 8.413h30.777c4.634 0 8.413-3.779 8.413-8.413V234.19c.001-4.634-3.779-8.413-8.412-8.413z" opacity="1" data-original="#fd4755"></path><path fill="#fe646f" d="M111.179 225.777H80.402c-4.634 0-8.413 3.779-8.413 8.413v30.777c0 4.634 3.779 8.413 8.413 8.413h30.777c4.634 0 8.413-3.779 8.413-8.413V234.19c0-4.634-3.779-8.413-8.413-8.413z" opacity="1" data-original="#fe646f"></path><path fill="#fd4755" d="m111.179 225.777-.001 30.777c0 4.634-3.779 8.413-8.413 8.413H71.989c0 4.634 3.779 8.413 8.413 8.413h30.777c4.634 0 8.413-3.779 8.413-8.413V234.19c0-4.634-3.779-8.413-8.413-8.413z" opacity="1" data-original="#fd4755"></path><path fill="#fe646f" d="M111.179 286.841H80.402c-4.634 0-8.413 3.779-8.413 8.413v30.777c0 4.634 3.779 8.413 8.413 8.413h30.777c4.634 0 8.413-3.779 8.413-8.413v-30.777c0-4.634-3.779-8.413-8.413-8.413z" opacity="1" data-original="#fe646f"></path><path fill="#fd4755" d="m111.179 286.841-.001 30.777c0 4.634-3.779 8.413-8.413 8.413H71.989c0 4.634 3.779 8.413 8.413 8.413h30.777c4.634 0 8.413-3.779 8.413-8.413v-30.777c0-4.634-3.779-8.413-8.413-8.413z" opacity="1" data-original="#fd4755"></path><path fill="#fe646f" d="M172.244 286.841h-30.777c-4.634 0-8.413 3.779-8.413 8.413v30.777c0 4.634 3.779 8.413 8.413 8.413h30.777c4.634 0 8.413-3.779 8.413-8.413v-30.777c0-4.634-3.78-8.413-8.413-8.413z" opacity="1" data-original="#fe646f"></path><path fill="#fd4755" d="m172.244 286.841-.001 30.777c0 4.634-3.779 8.413-8.413 8.413h-30.777c0 4.634 3.779 8.413 8.413 8.413h30.777c4.634 0 8.413-3.779 8.413-8.413v-30.777c.001-4.634-3.779-8.413-8.412-8.413z" opacity="1" data-original="#fd4755"></path><path fill="#8ac9fe" d="M233.308 286.841h-30.777c-4.634 0-8.413 3.779-8.413 8.413v30.777c0 4.634 3.779 8.413 8.413 8.413h30.777c4.634 0 8.413-3.779 8.413-8.413v-30.777c0-4.634-3.779-8.413-8.413-8.413z" opacity="1" data-original="#8ac9fe" class=""></path><path fill="#60b7ff" d="m233.308 286.841-.001 30.777c0 4.634-3.779 8.413-8.413 8.413h-30.777c0 4.634 3.779 8.413 8.413 8.413h30.777c4.634 0 8.413-3.779 8.413-8.413v-30.777c.001-4.634-3.778-8.413-8.412-8.413z" opacity="1" data-original="#60b7ff"></path><path fill="#8ac9fe" d="M294.372 286.841h-30.777c-4.634 0-8.413 3.779-8.413 8.413v30.777c0 4.634 3.779 8.413 8.413 8.413h30.777c4.634 0 8.413-3.779 8.413-8.413v-30.777c.001-4.634-3.779-8.413-8.413-8.413z" opacity="1" data-original="#8ac9fe" class=""></path><path fill="#60b7ff" d="m294.372 286.841-.001 30.777c0 4.634-3.779 8.413-8.413 8.413h-30.777c0 4.634 3.779 8.413 8.413 8.413h30.777c4.634 0 8.413-3.779 8.413-8.413v-30.777c.002-4.634-3.778-8.413-8.412-8.413z" opacity="1" data-original="#60b7ff"></path><path fill="#837683" d="M74.054 16.997h16.144c4.484 0 8.142 3.658 8.142 8.142v49.388c0 4.484-3.657 8.142-8.142 8.142H74.054c-4.484 0-8.142-3.657-8.142-8.142V25.139c0-4.484 3.657-8.142 8.142-8.142zm271.587 0h16.144c4.484 0 8.142 3.658 8.142 8.142v49.388c0 4.484-3.657 8.142-8.142 8.142h-16.144c-4.484 0-8.142-3.657-8.142-8.142V25.139c0-4.484 3.657-8.142 8.142-8.142zm-90.529 0h16.145c4.484 0 8.142 3.658 8.142 8.142v49.388c0 4.484-3.657 8.142-8.142 8.142h-16.145c-4.484 0-8.142-3.657-8.142-8.142V25.139c0-4.484 3.658-8.142 8.142-8.142zm-90.529 0h16.144c4.484 0 8.142 3.658 8.142 8.142v49.388c0 4.484-3.658 8.142-8.142 8.142h-16.144c-4.484 0-8.142-3.657-8.142-8.142V25.139c0-4.484 3.657-8.142 8.142-8.142z" opacity="1" data-original="#837683"></path><path fill="#685e68" d="M337.499 74.527c0 4.484 3.658 8.142 8.142 8.142h16.144c4.484 0 8.142-3.657 8.142-8.142V25.139c0-4.484-3.657-8.142-8.142-8.142v49.387c0 4.484-3.657 8.142-8.142 8.142zm-164.914-.001-16.144.001c0 4.484 3.658 8.142 8.142 8.142h16.144c4.484 0 8.142-3.657 8.142-8.142V25.139c0-4.484-3.658-8.142-8.142-8.142v49.387c0 4.485-3.658 8.142-8.142 8.142zm-82.387 8.142c4.484 0 8.142-3.657 8.142-8.142V25.139c0-4.484-3.658-8.142-8.142-8.142v49.387c0 4.484-3.658 8.142-8.142 8.142l-16.144.001c0 4.484 3.658 8.142 8.142 8.142h16.144zm181.058 0c4.484 0 8.142-3.657 8.142-8.142V25.139c0-4.484-3.657-8.142-8.142-8.142v49.387c0 4.484-3.657 8.142-8.142 8.142l-16.144.001c0 4.484 3.658 8.142 8.142 8.142h16.144z" opacity="1" data-original="#685e68"></path><circle cx="370.536" cy="369.538" r="125.465" fill="#6cf5c2" transform="rotate(-45 370.496 369.633)" opacity="1" data-original="#6cf5c2"></circle><path fill="#00e499" d="M370.536 244.073c69.292 0 125.465 56.173 125.465 125.465s-56.173 125.465-125.465 125.465c-2.524 0-5.028-.084-7.514-.23 65.793-3.888 117.951-58.466 117.951-125.235s-52.158-121.347-117.951-125.235c2.486-.147 4.99-.23 7.514-.23z" opacity="1" data-original="#00e499"></path><path fill="#ecba78" d="M289.657 358.755v69.402c0 7.148 5.848 12.997 12.997 12.997h135.763c7.148 0 12.997-5.848 12.997-12.997v-69.4z" opacity="1" data-original="#ecba78"></path><path fill="#e3a76f" d="M289.657 358.755v69.402c0 7.148 5.848 12.996 12.997 12.996h10.315c-7.148 0-12.996-5.849-12.996-12.996v-69.402z" opacity="1" data-original="#e3a76f"></path><path fill="#e3a76f" d="M447.367 372.638a40.508 40.508 0 0 0 4.046-2.898c4.676-3.838 7.915-8.63 7.915-14.921v-31.682c0-3.668-2.992-6.659-6.659-6.659H288.401c-3.667 0-6.658 2.992-6.658 6.659v31.682c0 6.29 3.24 11.083 7.914 14.92a40.485 40.485 0 0 0 4.047 2.899c27.037 17.106 126.823 16.981 153.663 0z" opacity="1" data-original="#e3a76f"></path><path fill="#c48958" d="M324.168 316.477h92.735v21.654c0 4.592-3.757 8.349-8.349 8.349h-76.037c-4.592 0-8.349-3.757-8.349-8.349zM299.972 316.477h-11.571c-3.667 0-6.658 2.992-6.658 6.659v31.682c0 6.29 3.24 11.083 7.914 14.92a40.485 40.485 0 0 0 4.047 2.899c1.784 1.129 3.893 2.18 6.269 3.159v-59.319z" opacity="1" data-original="#c48958"></path><path fill="#837683" d="M354.169 387.522c0 9.039 7.327 16.366 16.366 16.366s16.366-7.327 16.366-16.366c0-9.01-7.298-16.366-16.366-16.366-9.067 0-16.366 7.355-16.366 16.366z" opacity="1" data-original="#837683"></path><path fill="#685e68" d="M354.169 387.522c0 9.039 7.327 16.366 16.366 16.366.878 0 1.739-.07 2.579-.203-7.814-1.237-13.788-8.002-13.788-16.163 0-8.138 5.954-14.925 13.788-16.163a16.48 16.48 0 0 0-2.579-.202c-9.067-.001-16.366 7.355-16.366 16.365z" opacity="1" data-original="#685e68"></path><path d="M141.15 184.123a7.998 7.998 0 0 1 0-11.322 8.004 8.004 0 0 1 11.312 0l4.397 4.401 4.392-4.401a8.016 8.016 0 0 1 11.322 0 8.025 8.025 0 0 1 0 11.322l-4.402 4.397 4.402 4.392c3.116 3.131 3.116 8.191 0 11.317a7.98 7.98 0 0 1-5.663 2.344 7.986 7.986 0 0 1-5.659-2.344l-4.392-4.397-4.397 4.397a7.977 7.977 0 0 1-5.658 2.344 7.975 7.975 0 0 1-5.654-2.344 7.992 7.992 0 0 1 0-11.317l4.392-4.392zm-61.067 8.789 4.397-4.392-4.397-4.397a8.016 8.016 0 0 1 0-11.322 8.01 8.01 0 0 1 11.317 0l4.392 4.401 4.402-4.401c3.116-3.121 8.187-3.121 11.307 0a7.998 7.998 0 0 1 0 11.322l-4.392 4.397 4.392 4.392a7.992 7.992 0 0 1 0 11.317 7.963 7.963 0 0 1-5.649 2.344c-2.053 0-4.1-.781-5.659-2.344l-4.402-4.397-4.392 4.397a7.977 7.977 0 0 1-5.659 2.344c-2.052 0-4.1-.781-5.659-2.344a8.012 8.012 0 0 1 .002-11.317zm358.34 240.25H302.661c-2.711 0-5-2.288-5-4.999v-44.661c14.297 5.701 34.337 8.111 49.048 9.128 2.354 10.992 12.141 19.263 23.83 19.263 11.694 0 21.481-8.281 23.83-19.282 14.721-1.022 34.761-3.432 49.044-9.119v44.67c0 2.712-2.283 5-4.99 5zm-59.522-45.64c0-4.609-3.747-8.361-8.361-8.361-4.608 0-8.37 3.752-8.37 8.361 0 4.618 3.761 8.37 8.37 8.37 4.613 0 8.361-3.751 8.361-8.37zm-89.148-63.039h26.419v13.657c0 9.01 7.339 16.34 16.349 16.34h76.041c9.01 0 16.349-7.33 16.349-16.34v-13.657h26.419v30.336c0 2.721-.941 6.44-8.238 11.063-8.393 5.31-27.102 9.269-50.733 10.828-3.987-8.017-12.268-13.549-21.82-13.549-9.556 0-17.837 5.532-21.829 13.558-23.59-1.544-42.312-5.508-50.729-10.837-7.301-4.623-8.229-8.342-8.229-11.063v-30.336zm54.118-21.914c0-3.248 2.65-5.898 5.908-5.898H391.3c3.262 0 5.913 2.65 5.913 5.898v5.913h-53.342zm-11.698 21.914v13.657c0 .169.179.339.348.339h76.041c.169 0 .348-.169.348-.339v-13.657zm135.159-1.341c0-8.083-6.581-14.659-14.659-14.659H413.21v-5.913c0-12.08-9.829-21.9-21.909-21.9H349.78c-12.079 0-21.909 9.82-21.909 21.9v5.913h-39.459c-8.092 0-14.659 6.576-14.659 14.659v31.677c0 6.902 2.66 13.054 7.909 18.402v54.942c0 11.58 9.42 21 21.001 21h135.762c11.576 0 20.991-9.42 20.991-21v-54.942c5.249-5.348 7.918-11.5 7.918-18.402v-31.677zM370.54 487.003c64.772 0 117.464-52.692 117.464-117.464 0-64.767-52.692-117.458-117.464-117.458-64.771 0-117.468 52.692-117.468 117.458 0 64.772 52.696 117.464 117.468 117.464zm-53.017-259.952h45.056v9.269a132.614 132.614 0 0 0-45.056 10.752zm-38.093 45.06h-22.978v-45.06h45.07v28.302a134.45 134.45 0 0 0-22.092 16.758zm-22.978 16.002h8.422a132.905 132.905 0 0 0-8.422 12.23zm-61.062 0h45.061v45.07H195.39zm-61.062 0h45.061v45.07h-45.061zm-61.067 0h45.07v45.07h-45.07zm0-61.062h45.07v45.06h-45.07zm45.071-16.001v-45.07h-45.07v45.07zm61.057 0v-45.07h-45.061v45.07zm0 61.061h-45.061v-45.06h45.061zm16.001-45.06h45.061v45.06H195.39zm45.061-16.001H195.39v-45.07h45.061zm61.071 0h-45.07v-45.07h45.07zm61.058 0h-45.056v-45.07h45.056zM48.57 375.683h188.651c-.09-2.038-.151-4.082-.151-6.144 0-6.915.541-13.718 1.558-20.36H65.263a7.999 7.999 0 0 1-8.003-7.998V157.982c0-4.411 3.583-7.998 8.003-7.998h305.319a8 8 0 0 1 7.998 7.998v78.353a132.416 132.416 0 0 1 33.259 6.299v-119.39H24.002v227.87c0 13.548 11.02 24.569 24.568 24.569zm0-323.523h9.34v22.37c0 8.902 7.25 16.142 16.152 16.142h16.137c8.902 0 16.142-7.24 16.142-16.142V52.16h42.1v22.37c0 8.902 7.24 16.142 16.138 16.142h16.152c8.902 0 16.142-7.24 16.142-16.142V52.16h42.1v22.37c0 8.902 7.235 16.142 16.137 16.142h16.152c8.897 0 16.138-7.24 16.138-16.142V52.16h42.1v22.37c0 8.902 7.24 16.142 16.142 16.142h16.147c8.902 0 16.143-7.24 16.143-16.142V52.16h9.34c13.548 0 24.569 11.021 24.569 24.569v30.514H24.002V76.729c0-13.548 11.02-24.569 24.568-24.569zm25.341-27.021V74.53c0 .071.08.141.151.141h16.137c.071 0 .141-.071.141-.141V25.139c0-.057-.071-.137-.141-.137H74.062c-.071 0-.151.08-.151.137zm90.532 0V74.53c0 .071.08.141.136.141h16.152c.071 0 .141-.071.141-.141V25.139c0-.057-.071-.137-.141-.137h-16.152c-.056 0-.136.08-.136.137zm90.526 0V74.53c0 .071.08.141.141.141h16.152c.071 0 .141-.071.141-.141V25.139c0-.057-.071-.137-.141-.137H255.11c-.061 0-.141.08-.141.137zm90.531 0V74.53c0 .071.08.141.141.141h16.147c.061 0 .142-.071.142-.141V25.139c0-.057-.08-.137-.142-.137h-16.147c-.06 0-.141.08-.141.137zm82.341 223.882V76.729c0-22.37-18.2-40.57-40.57-40.57h-9.34v-11.02c0-8.897-7.24-16.138-16.143-16.138h-16.147c-8.902 0-16.142 7.24-16.142 16.138v11.02h-42.1v-11.02c0-8.897-7.24-16.138-16.138-16.138H255.11c-8.902 0-16.137 7.24-16.137 16.138v11.02h-42.1v-11.02c0-8.897-7.24-16.138-16.142-16.138h-16.152c-8.897 0-16.138 7.24-16.138 16.138v11.02h-42.1v-11.02c0-8.897-7.24-16.138-16.142-16.138H74.062c-8.902 0-16.152 7.24-16.152 16.138v11.02h-9.34C26.2 36.159 8 54.359 8 76.729v274.385c0 22.37 18.2 40.57 40.57 40.57h190.351c10.578 63.091 65.572 111.315 131.619 111.315 73.589 0 133.46-59.866 133.46-133.46 0-53.087-31.16-99.037-76.159-120.518z" fill="#000000" opacity="1" data-original="#000000"></path></g></g></svg>