<svg xmlns="http://www.w3.org/2000/svg" version="1.1" xmlns:xlink="http://www.w3.org/1999/xlink" width="512" height="512" x="0" y="0" viewBox="0 0 511.993 511.993" style="enable-background:new 0 0 512 512" xml:space="preserve" class=""><g><path fill="#ffe07d" d="M486.241 177.324 290.409 19.632c-20.09-16.177-48.736-16.177-68.826 0L25.752 177.324v273.154c0 29.831 24.183 54.015 54.015 54.015h352.46c29.831 0 54.015-24.183 54.015-54.015V177.324z" opacity="1" data-original="#ffe07d"></path><path fill="#ffd064" d="M122.287 504.493h-42.53c-29.83 0-54.01-24.18-54.01-54.01V177.324h42.53v273.159c0 29.83 24.18 54.01 54.01 54.01z" opacity="1" data-original="#ffd064"></path><path fill="#ffd064" d="m486.235 177.324-41.13 33.12-11.94 9.62-142.759 114.95c-20.09 16.18-48.74 16.18-68.829 0l-142.76-114.95-11.93-9.61-41.14-33.13 41.14-33.13 134.3-108.139 20.39-16.42c20.09-16.19 48.74-16.19 68.829 0l20.39 16.42 128.609 103.56z" opacity="1" data-original="#ffd064"></path><path fill="#e7ecf6" d="M445.105 162.284v48.16l-11.94 9.62-142.759 114.95c-20.09 16.18-48.74 16.18-68.829 0l-142.76-114.95-11.93-9.61V74.455c0-21.21 17.19-38.4 38.4-38.4h213.589c12.73 0 24.94 5.05 33.94 14.06l78.23 78.23a47.87 47.87 0 0 1 8.36 11.27 47.93 47.93 0 0 1 5.699 22.669z" opacity="1" data-original="#e7ecf6" class=""></path><g fill="#d8e2f1"><path d="M445.111 176.485v33.96l-11.94 9.62-142.759 114.949c-20.09 16.18-48.74 16.18-68.83 0L78.823 220.065l-11.93-9.61v-33.96l11.93 9.61 142.759 114.95c20.09 16.18 48.74 16.18 68.83 0l142.759-114.95zM445.109 162.291v8.195c0-15.509-12.577-28.086-28.086-28.086h-39.86c-21.209 0-38.402-17.194-38.402-38.402v-39.86c0-15.509-12.577-28.086-28.086-28.086h8.195a48.043 48.043 0 0 1 33.951 14.06l78.227 78.227a48.045 48.045 0 0 1 14.061 33.952z" fill="#d8e2f1" opacity="1" data-original="#d8e2f1"></path></g><g fill="#dd636e"><path d="M255.996 210.454c-13.552 0-24.539-10.986-24.539-24.539V98.566c0-13.552 10.986-24.539 24.539-24.539 13.552 0 24.539 10.986 24.539 24.539v87.349c0 13.553-10.986 24.539-24.539 24.539z" fill="#dd636e" opacity="1" data-original="#dd636e" class=""></path><circle cx="255.996" cy="258.133" r="24.539" fill="#dd636e" opacity="1" data-original="#dd636e" class=""></circle></g><path d="M486.246 410.562a7.5 7.5 0 0 0 7.5-7.5v-225.74a7.5 7.5 0 0 0-2.796-5.841l-45.672-36.78a55.755 55.755 0 0 0-8.927-11.664l-78.23-78.23C347.638 34.324 333.7 28.55 318.874 28.55h-5.439l-18.324-14.756C284.067 4.899 270.175 0 255.996 0s-28.07 4.899-39.114 13.794l-18.33 14.761h-93.265c-25.31 0-45.9 20.591-45.9 45.9v66.147l-38.345 30.879a7.5 7.5 0 0 0-2.796 5.841v273.16c0 33.917 27.598 61.51 61.52 61.51h352.461c33.922 0 61.52-27.593 61.52-61.51v-17.42c0-4.142-3.357-7.5-7.5-7.5s-7.5 3.358-7.5 7.5v17.42c0 25.646-20.868 46.51-46.52 46.51H79.766c-25.651 0-46.52-20.864-46.52-46.51V192.984l61.105 49.209a7.465 7.465 0 0 0 4.699 1.659 7.5 7.5 0 0 0 4.709-13.341l-29.373-23.655V74.455c0-17.038 13.862-30.9 30.9-30.9h205.389c11.348 0 20.58 9.232 20.58 20.58v39.86c0 25.315 20.595 45.91 45.909 45.91h39.86c11.348 0 20.58 9.232 20.58 20.58v36.37L285.712 329.171c-17.218 13.868-42.212 13.869-59.432 0l-100.09-80.6a7.5 7.5 0 1 0-9.408 11.682l100.09 80.6c11.044 8.895 24.938 13.794 39.124 13.794s28.08-4.899 39.124-13.794l183.626-147.87v210.079a7.5 7.5 0 0 0 7.5 7.5zM37.709 177.319l21.678-17.458v34.916zM226.29 25.477c17.213-13.863 42.199-13.863 59.412 0l3.823 3.079h-67.058zm150.875 109.427c-17.043 0-30.909-13.866-30.909-30.91v-39.86c0-4.063-.694-7.965-1.954-11.605a41.48 41.48 0 0 1 3.211 2.884l78.231 78.23a40.98 40.98 0 0 1 2.886 3.214 35.407 35.407 0 0 0-11.605-1.954h-39.86zm75.443 27.381c0-.827-.024-1.649-.06-2.47l21.736 17.504-21.678 17.457z" fill="#000000" opacity="1" data-original="#000000" class=""></path><path d="M307.402 392.589a7.5 7.5 0 0 0-9.408 11.683l71.521 57.592a7.471 7.471 0 0 0 4.699 1.659 7.5 7.5 0 0 0 4.709-13.342zM204.591 392.589l-71.521 57.592a7.5 7.5 0 0 0 9.408 11.683l71.521-57.592a7.5 7.5 0 0 0-9.408-11.683zM255.996 217.954c17.666 0 32.039-14.373 32.039-32.039V98.566c0-17.667-14.373-32.039-32.039-32.039S223.957 80.9 223.957 98.566v87.349c0 17.667 14.373 32.039 32.039 32.039zM238.957 98.566c0-9.396 7.644-17.039 17.039-17.039s17.039 7.644 17.039 17.039v87.349c0 9.395-7.644 17.039-17.039 17.039s-17.039-7.644-17.039-17.039zM255.996 290.171c17.666 0 32.039-14.373 32.039-32.039s-14.373-32.039-32.039-32.039-32.039 14.373-32.039 32.039 14.373 32.039 32.039 32.039zm0-49.077c9.396 0 17.039 7.644 17.039 17.039s-7.644 17.039-17.039 17.039-17.039-7.644-17.039-17.039 7.644-17.039 17.039-17.039z" fill="#000000" opacity="1" data-original="#000000" class=""></path></g></svg>