<svg xmlns="http://www.w3.org/2000/svg" version="1.1" xmlns:xlink="http://www.w3.org/1999/xlink" width="512" height="512" x="0" y="0" viewBox="0 0 512 512" style="enable-background:new 0 0 512 512" xml:space="preserve" class=""><g><g fill-rule="evenodd"><path fill="#60b7ff" d="M87.5 64h266.164c14.881 0 27.013 12.556 27.013 27.976v360.84c0 15.42-12.132 27.977-27.013 27.977H87.5c-14.91 0-27.013-12.557-27.013-27.977V91.979C60.488 76.559 72.591 64 87.5 64z" opacity="1" data-original="#60b7ff"></path><path fill="#eaf6ff" d="M92.688 104.593V440.2a8.4 8.4 0 0 0 8.39 8.362h239.009a8.4 8.4 0 0 0 8.361-8.362V104.593a8.4 8.4 0 0 0-8.361-8.362H101.078a8.4 8.4 0 0 0-8.39 8.362z" opacity="1" data-original="#eaf6ff" class=""></path><path fill="#685e68" d="M173.246 39.937h14.4a32.938 32.938 0 0 1 65.875 0h14.371a26.875 26.875 0 0 1 26.787 26.787v48.839a8.378 8.378 0 0 1-8.362 8.362H154.821a8.4 8.4 0 0 1-8.362-8.362V66.724a26.875 26.875 0 0 1 26.787-26.787z" opacity="1" data-original="#685e68"></path><path fill="#3bb54a" d="M451.512 418.036a86.949 86.949 0 1 1-86.935-86.936 86.953 86.953 0 0 1 86.935 86.935z" opacity="1" data-original="#3bb54a"></path><path fill="#35a343" d="M292.949 150.909h-22.507a3.007 3.007 0 0 0-3 3V254.03a3.025 3.025 0 0 0 3 3.005h22.507a3.024 3.024 0 0 0 3-3.005V153.914a3.006 3.006 0 0 0-3-3z" opacity="1" data-original="#35a343"></path><path fill="#cf3a45" d="M231.836 173.387H209.33a3.025 3.025 0 0 0-3.005 3v77.643a3.025 3.025 0 0 0 3.005 3.005h22.506a3 3 0 0 0 2.976-3.005v-77.638a3 3 0 0 0-2.976-3z" opacity="1" data-original="#cf3a45"></path><path fill="#e6a82e" d="M170.7 195.894h-22.512a3 3 0 0 0-2.976 3v55.136a3 3 0 0 0 2.976 3.005H170.7a3.024 3.024 0 0 0 3-3.005V198.9a3.023 3.023 0 0 0-3-3z" opacity="1" data-original="#e6a82e"></path><path fill="#5e555e" d="M163.1 64a26.9 26.9 0 0 1 26.645-24.066h14.4a32.941 32.941 0 0 1 24.686-31.885 32.939 32.939 0 0 0-41.186 31.888h-14.4A26.876 26.876 0 0 0 146.6 64a29.151 29.151 0 0 0-.142 2.721v48.839a8.4 8.4 0 0 0 8.362 8.362h16.526a8.4 8.4 0 0 1-8.391-8.362V66.724c0-.907.057-1.815.142-2.721z" opacity="1" data-original="#5e555e"></path><path fill="#d3dde6" d="M108.476 448.565V96.231h-7.4a8.4 8.4 0 0 0-8.39 8.362V440.2a8.4 8.4 0 0 0 8.39 8.362z" opacity="1" data-original="#d3dde6" class=""></path><path fill="#56a5e6" d="M92.688 440.2V104.593a8.4 8.4 0 0 1 8.39-8.362h7.4V64H87.5c-14.91 0-27.013 12.556-27.013 27.976v360.84c0 15.42 12.1 27.977 27.013 27.977h20.975v-32.228h-7.4a8.4 8.4 0 0 1-8.39-8.362z" opacity="1" data-original="#56a5e6" class=""></path><path fill="#3bb54a" d="M274.666 150.909v106.126h18.283a3.024 3.024 0 0 0 3-3.005V153.914a3.006 3.006 0 0 0-3-3z" opacity="1" data-original="#3bb54a"></path><path fill="#e6404d" d="M213.553 173.387v83.648h18.283a3 3 0 0 0 2.976-3.005v-77.638a3 3 0 0 0-2.976-3z" opacity="1" data-original="#e6404d"></path><path fill="#ffbb33" d="M152.752 195.894a2.656 2.656 0 0 0-.34 1.332v59.809H170.7a3.024 3.024 0 0 0 3-3.005V198.9a3.023 3.023 0 0 0-3-3z" opacity="1" data-original="#ffbb33" class=""></path><path fill="#35a343" d="M300.885 418.036a86.933 86.933 0 0 1 75.314-86.17 87.35 87.35 0 0 0-11.622-.765 86.95 86.95 0 1 0 0 173.9 87.335 87.335 0 0 0 11.622-.793 86.813 86.813 0 0 1-75.314-86.171z" opacity="1" data-original="#35a343"></path></g><path d="M213.454 37.813a7 7 0 0 1 7-7h.255a7 7 0 1 1 0 14h-.255a7 7 0 0 1-7-7zM173.8 103.235h93.567a7 7 0 1 0 0-14H173.8a7 7 0 0 0 0 14zm284.727 314.8a93.893 93.893 0 0 1-156.82 69.758H87.488c-18.755 0-34.014-15.692-34.014-34.979V91.981C53.474 72.694 68.733 57 87.488 57h53.423a33.849 33.849 0 0 1 32.349-24.063h8.012a39.943 39.943 0 0 1 78.648 0h7.98A33.847 33.847 0 0 1 300.254 57h53.423c18.756 0 34.015 15.692 34.015 34.979v235a94.1 94.1 0 0 1 70.834 91.056zM353.677 71.006h-51.984v18.225H340.1a15.382 15.382 0 0 1 15.364 15.363v219.949c3-.291 6.047-.445 9.126-.445s6.1.153 9.1.442V91.981c-.002-11.566-8.979-20.975-20.013-20.975zm-83.051 347.029a94.108 94.108 0 0 1 70.834-91.054V104.594a1.394 1.394 0 0 0-1.36-1.359h-38.407v12.329a15.382 15.382 0 0 1-15.364 15.364H154.836a15.381 15.381 0 0 1-15.363-15.364v-12.329h-38.379a1.392 1.392 0 0 0-1.389 1.359V440.2a1.393 1.393 0 0 0 1.389 1.36h172.514a93.818 93.818 0 0 1-2.982-23.525zm-117.15-302.471a1.4 1.4 0 0 0 1.36 1.36h131.493a1.378 1.378 0 0 0 1.36-1.36v-48.81A19.821 19.821 0 0 0 267.9 46.94h-14.37a7 7 0 0 1-7-7 25.936 25.936 0 1 0-51.871 0 7 7 0 0 1-7 7h-14.4a19.82 19.82 0 0 0-19.784 19.814zM87.488 473.79H289a94.027 94.027 0 0 1-10.549-18.226H101.094A15.4 15.4 0 0 1 85.7 440.2V104.594a15.4 15.4 0 0 1 15.392-15.363h38.379V71.006H87.488c-11.035 0-20.011 9.409-20.011 20.975v360.833c0 11.566 8.976 20.976 20.011 20.976zm357.035-55.755A79.947 79.947 0 1 0 364.59 498a80.023 80.023 0 0 0 79.933-79.965zM403.6 382.557l-56.1 56.107-21.949-21.925a7 7 0 1 0-9.9 9.906l26.9 26.87a7 7 0 0 0 9.9 0l61.049-61.056a7 7 0 0 0-9.9-9.9zM260.45 257.034V150.91a7 7 0 0 1 7-7h28.515a7 7 0 0 1 7 7v106.124a7 7 0 0 1-7 7h-28.514a7 7 0 0 1-7.001-7zm14-7h14.512v-92.12h-14.509zm-75.116 7v-83.646a7 7 0 0 1 7-7h28.487a7 7 0 0 1 7 7v83.646a7 7 0 0 1-7 7h-28.482a7 7 0 0 1-7.002-7zm14-7h14.484v-69.645H213.34zm-75.114 7v-61.14a7 7 0 0 1 7-7h28.486a7 7 0 0 1 7 7v61.14a7 7 0 0 1-7 7h-28.479a7 7 0 0 1-7.001-7zm14-7h14.483V202.9h-14.474zm-7 48.5h150.746a7 7 0 1 0 0-14H145.227a7 7 0 0 0 0 14zm157.741 27.126a7 7 0 0 0-7-7H145.227a7 7 0 0 0 0 14h150.739a7 7 0 0 0 7.002-7.002zm-59.412 27.126h-98.322a7 7 0 0 0 0 14h98.329a7 7 0 0 0 0-14zm0 34.1h-98.322a7 7 0 0 0 0 14h98.329a7 7 0 0 0 0-14z" fill="#000000" opacity="1" data-original="#000000" class=""></path></g></svg>