<svg xmlns="http://www.w3.org/2000/svg" version="1.1" xmlns:xlink="http://www.w3.org/1999/xlink" width="512" height="512" x="0" y="0" viewBox="0 0 512 512" style="enable-background:new 0 0 512 512" xml:space="preserve" class=""><g><g fill-rule="evenodd" clip-rule="evenodd"><path fill="#eceff1" d="M34.467 46.475h260.05c2.337 0 4.347.833 5.998 2.485l47.63 47.629c1.651 1.652 2.485 3.662 2.485 5.998v356.175c0 4.672-3.811 8.483-8.483 8.483H34.467c-4.672 0-8.483-3.811-8.483-8.483V54.958c0-4.672 3.81-8.483 8.483-8.483z" opacity="1" data-original="#eceff1" class=""></path><path fill="#d1d1d6" d="M34.467 46.475h15.519v420.77H34.467c-4.672 0-8.483-3.811-8.483-8.483V54.958c0-4.672 3.81-8.483 8.483-8.483z" opacity="1" data-original="#d1d1d6"></path><path fill="#a79ba7" d="M298.031 47.21c.901.411 1.73.995 2.484 1.749l47.63 47.63a8.505 8.505 0 0 1 1.749 2.484h-47.622a4.249 4.249 0 0 1-4.241-4.241z" opacity="1" data-original="#a79ba7"></path><path fill="#6cf5c2" d="M84.908 169.459H117.3c5.5 0 10 4.499 10 10v32.392c0 5.501-4.5 10-10 10H84.908c-5.5 0-10-4.499-10-10v-32.392c0-5.501 4.5-10 10-10z" opacity="1" data-original="#6cf5c2"></path><path fill="#ffe177" d="M84.907 259.232h32.394c5.5 0 10 4.499 10 9.999v32.394c0 5.5-4.5 9.999-10 9.999H84.907c-5.5 0-9.999-4.499-9.999-9.999v-32.394c0-5.499 4.499-9.999 9.999-9.999z" opacity="1" data-original="#ffe177"></path><path fill="#fe646f" d="M84.908 349.006H117.3c5.5 0 10 4.5 10 10v32.393c0 5.5-4.5 10-10 10H84.908c-5.5 0-10-4.499-10-10v-32.393c0-5.501 4.5-10 10-10z" opacity="1" data-original="#fe646f"></path><path fill="#00e499" d="M118.949 169.596c4.723.792 8.352 4.923 8.352 9.863v32.392c0 5.501-4.5 10-10 10H84.908c-4.939 0-9.071-3.628-9.862-8.352a9.96 9.96 0 0 0 1.648.138h32.393c5.5 0 10-4.5 10-10v-32.392a10.071 10.071 0 0 0-.138-1.649z" opacity="1" data-original="#00e499"></path><path fill="#ffd064" d="M118.949 259.37c4.723.792 8.352 4.923 8.352 9.862v32.394c0 5.5-4.5 9.999-10 9.999H84.907c-4.939 0-9.07-3.629-9.862-8.352a9.96 9.96 0 0 0 1.648.137h32.394c5.5 0 10-4.499 10-9.999v-32.394c0-.561-.048-1.111-.138-1.647z" opacity="1" data-original="#ffd064"></path><path fill="#fd4755" d="M118.949 349.143c4.723.792 8.352 4.923 8.352 9.863v32.393c0 5.5-4.5 10-10 10H84.908c-4.939 0-9.071-3.629-9.862-8.352a9.96 9.96 0 0 0 1.648.137h32.393c5.5 0 10-4.499 10-10v-32.393a10.069 10.069 0 0 0-.138-1.648z" opacity="1" data-original="#fd4755"></path><path fill="#8ac9fe" d="M486.016 283.884v155.53c0 6.198-2.209 11.531-6.592 15.914l-34.078 34.078c-4.383 4.382-9.716 6.592-15.914 6.592h-199.98c-12.396 0-22.506-10.11-22.506-22.506V283.884c0-12.396 10.11-22.506 22.506-22.506h234.059c12.395.001 22.505 10.111 22.505 22.506z" opacity="1" data-original="#8ac9fe"></path><path fill="#60b7ff" d="M469.136 310.494v155.123l10.288-10.288c4.382-4.382 6.592-9.716 6.592-15.914V283.885c0-12.396-10.11-22.506-22.506-22.506H446.63c1.68 0 3.318.186 4.894.538 10.056 2.245 17.612 11.253 17.612 21.968z" opacity="1" data-original="#60b7ff"></path><path fill="#60b7ff" d="M206.946 310.494h279.07v-26.61c0-12.396-10.11-22.506-22.506-22.506H229.452c-12.396 0-22.506 10.11-22.506 22.506z" opacity="1" data-original="#60b7ff"></path><path fill="#41a8fc" d="M469.136 310.494h16.88v-26.61c0-12.396-10.11-22.506-22.506-22.506H446.63c1.68 0 3.318.186 4.894.538 10.056 2.245 17.612 11.253 17.612 21.968z" opacity="1" data-original="#41a8fc"></path><path fill="#60b7ff" d="M444.381 448.737a5.636 5.636 0 0 0-5.626 5.626v39.685c2.39-1.091 4.59-2.64 6.592-4.641l34.078-34.078c2.002-2.002 3.55-4.202 4.641-6.591h-39.685z" opacity="1" data-original="#60b7ff"></path><path fill="#41a8fc" d="m469.136 465.617 10.288-10.288c2.002-2.002 3.55-4.202 4.641-6.591h-14.929z" opacity="1" data-original="#41a8fc"></path><path fill="#fe646f" d="M240.295 440.497v19.359a2.819 2.819 0 0 0 2.813 2.813h19.359a2.819 2.819 0 0 0 2.813-2.813v-19.359a2.819 2.819 0 0 0-2.813-2.813h-19.359a2.819 2.819 0 0 0-2.813 2.813zm0-46.846v19.359a2.819 2.819 0 0 0 2.813 2.813h19.359a2.819 2.819 0 0 0 2.813-2.813v-19.359a2.819 2.819 0 0 0-2.813-2.813h-19.359a2.818 2.818 0 0 0-2.813 2.813zm0-46.848v19.359a2.819 2.819 0 0 0 2.813 2.813h19.359a2.819 2.819 0 0 0 2.813-2.813v-19.359a2.819 2.819 0 0 0-2.813-2.813h-19.359a2.819 2.819 0 0 0-2.813 2.813z" opacity="1" data-original="#fe646f"></path><path fill="#fd4755" d="M240.295 457.043v2.814a2.819 2.819 0 0 0 2.813 2.813h19.359a2.819 2.819 0 0 0 2.813-2.813v-19.359a2.819 2.819 0 0 0-2.813-2.813h-2.813v16.545a2.819 2.819 0 0 1-2.813 2.813zm0-46.847v2.814a2.819 2.819 0 0 0 2.813 2.813h19.359a2.819 2.819 0 0 0 2.813-2.813v-19.359a2.819 2.819 0 0 0-2.813-2.813h-2.813v16.545a2.819 2.819 0 0 1-2.813 2.813zm0-46.847v2.813a2.819 2.819 0 0 0 2.813 2.813h19.359a2.819 2.819 0 0 0 2.813-2.813v-19.359a2.819 2.819 0 0 0-2.813-2.813h-2.813v16.546a2.819 2.819 0 0 1-2.813 2.813z" opacity="1" data-original="#fd4755"></path><path fill="#eceff1" d="M380.836 440.497v19.359a2.819 2.819 0 0 0 2.813 2.813h19.359a2.819 2.819 0 0 0 2.813-2.813v-19.359a2.819 2.819 0 0 0-2.813-2.813h-19.359a2.818 2.818 0 0 0-2.813 2.813zm-93.694-93.694v19.359a2.819 2.819 0 0 0 2.813 2.813h19.359a2.819 2.819 0 0 0 2.813-2.813v-19.359a2.819 2.819 0 0 0-2.813-2.813h-19.359a2.819 2.819 0 0 0-2.813 2.813zm46.847 0v19.359a2.819 2.819 0 0 0 2.813 2.813h19.359a2.819 2.819 0 0 0 2.813-2.813v-19.359a2.819 2.819 0 0 0-2.813-2.813h-19.359a2.818 2.818 0 0 0-2.813 2.813zm46.847 0v19.359a2.819 2.819 0 0 0 2.813 2.813h19.359a2.819 2.819 0 0 0 2.813-2.813v-19.359a2.819 2.819 0 0 0-2.813-2.813h-19.359a2.818 2.818 0 0 0-2.813 2.813zm46.847 0v19.359a2.819 2.819 0 0 0 2.813 2.813h19.359a2.819 2.819 0 0 0 2.813-2.813v-19.359a2.818 2.818 0 0 0-2.813-2.813h-19.359a2.818 2.818 0 0 0-2.813 2.813zm0 46.848v19.359a2.819 2.819 0 0 0 2.813 2.813h19.359a2.819 2.819 0 0 0 2.813-2.813v-19.359a2.818 2.818 0 0 0-2.813-2.813h-19.359a2.817 2.817 0 0 0-2.813 2.813zm-46.847 0v19.359a2.819 2.819 0 0 0 2.813 2.813h19.359a2.819 2.819 0 0 0 2.813-2.813v-19.359a2.819 2.819 0 0 0-2.813-2.813h-19.359a2.817 2.817 0 0 0-2.813 2.813zm-46.847 0v19.359a2.819 2.819 0 0 0 2.813 2.813h19.359a2.819 2.819 0 0 0 2.813-2.813v-19.359a2.819 2.819 0 0 0-2.813-2.813h-19.359a2.817 2.817 0 0 0-2.813 2.813zm-46.847 0v19.359a2.819 2.819 0 0 0 2.813 2.813h19.359a2.819 2.819 0 0 0 2.813-2.813v-19.359a2.819 2.819 0 0 0-2.813-2.813h-19.359a2.818 2.818 0 0 0-2.813 2.813zm0 46.846v19.359a2.819 2.819 0 0 0 2.813 2.813h19.359a2.819 2.819 0 0 0 2.813-2.813v-19.359a2.819 2.819 0 0 0-2.813-2.813h-19.359a2.819 2.819 0 0 0-2.813 2.813zm46.847 0v19.359a2.819 2.819 0 0 0 2.813 2.813h19.359a2.819 2.819 0 0 0 2.813-2.813v-19.359a2.819 2.819 0 0 0-2.813-2.813h-19.359a2.818 2.818 0 0 0-2.813 2.813z" opacity="1" data-original="#eceff1" class=""></path><path fill="#d1d1d6" d="M380.836 457.043v2.814a2.819 2.819 0 0 0 2.813 2.813h19.359a2.819 2.819 0 0 0 2.813-2.813v-19.359a2.819 2.819 0 0 0-2.813-2.813h-2.814v16.545a2.819 2.819 0 0 1-2.813 2.813zm-46.847 0v2.814a2.819 2.819 0 0 0 2.813 2.813h19.359a2.819 2.819 0 0 0 2.813-2.813v-19.359a2.819 2.819 0 0 0-2.813-2.813h-2.814v16.545a2.819 2.819 0 0 1-2.813 2.813zm-46.847 0v2.814a2.819 2.819 0 0 0 2.813 2.813h19.359a2.819 2.819 0 0 0 2.813-2.813v-19.359a2.819 2.819 0 0 0-2.813-2.813h-2.813v16.545a2.819 2.819 0 0 1-2.813 2.813zm46.847-46.847v2.814a2.819 2.819 0 0 0 2.813 2.813h19.359a2.819 2.819 0 0 0 2.813-2.813v-19.359a2.819 2.819 0 0 0-2.813-2.813h-2.814v16.545a2.819 2.819 0 0 1-2.813 2.813zm-46.847 0v2.814a2.819 2.819 0 0 0 2.813 2.813h19.359a2.819 2.819 0 0 0 2.813-2.813v-19.359a2.819 2.819 0 0 0-2.813-2.813h-2.813v16.545a2.819 2.819 0 0 1-2.813 2.813zm140.541 0v2.814a2.819 2.819 0 0 0 2.813 2.813h19.359a2.819 2.819 0 0 0 2.813-2.813v-19.359a2.818 2.818 0 0 0-2.813-2.813h-2.814v16.545a2.819 2.819 0 0 1-2.813 2.813zm-46.847 0v2.814a2.819 2.819 0 0 0 2.813 2.813h19.359a2.819 2.819 0 0 0 2.813-2.813v-19.359a2.819 2.819 0 0 0-2.813-2.813h-2.814v16.545a2.819 2.819 0 0 1-2.813 2.813zm-46.847-46.847v2.813a2.819 2.819 0 0 0 2.813 2.813h19.359a2.819 2.819 0 0 0 2.813-2.813v-19.359a2.819 2.819 0 0 0-2.813-2.813h-2.814v16.546a2.819 2.819 0 0 1-2.813 2.813zm-46.847 0v2.813a2.819 2.819 0 0 0 2.813 2.813h19.359a2.819 2.819 0 0 0 2.813-2.813v-19.359a2.819 2.819 0 0 0-2.813-2.813h-2.813v16.546a2.819 2.819 0 0 1-2.813 2.813zm140.541 0v2.813a2.819 2.819 0 0 0 2.813 2.813h19.359a2.819 2.819 0 0 0 2.813-2.813v-19.359a2.818 2.818 0 0 0-2.813-2.813h-2.814v16.546a2.819 2.819 0 0 1-2.813 2.813zm-46.847 0v2.813a2.819 2.819 0 0 0 2.813 2.813h19.359a2.819 2.819 0 0 0 2.813-2.813v-19.359a2.819 2.819 0 0 0-2.813-2.813h-2.814v16.546a2.819 2.819 0 0 1-2.813 2.813z" opacity="1" data-original="#d1d1d6"></path><path fill="#837683" d="M247.064 242.607h11.157a5.637 5.637 0 0 1 5.626 5.627v34.129a5.636 5.636 0 0 1-5.626 5.626h-11.157a5.636 5.636 0 0 1-5.626-5.626v-34.129a5.637 5.637 0 0 1 5.626-5.627zm187.678 0h11.157a5.637 5.637 0 0 1 5.626 5.627v34.129a5.637 5.637 0 0 1-5.626 5.626h-11.157a5.636 5.636 0 0 1-5.626-5.626v-34.129a5.637 5.637 0 0 1 5.626-5.627zm-62.559 0h11.156a5.637 5.637 0 0 1 5.626 5.627v34.129a5.636 5.636 0 0 1-5.626 5.626h-11.156a5.636 5.636 0 0 1-5.626-5.626v-34.129a5.637 5.637 0 0 1 5.626-5.627zm-62.56 0h11.157a5.637 5.637 0 0 1 5.626 5.627v34.129a5.636 5.636 0 0 1-5.626 5.626h-11.157a5.636 5.636 0 0 1-5.626-5.626v-34.129a5.637 5.637 0 0 1 5.626-5.627z" opacity="1" data-original="#837683"></path><path fill="#685e68" d="M429.115 282.362a5.636 5.636 0 0 0 5.626 5.626h11.157a5.637 5.637 0 0 0 5.626-5.626V248.233a5.637 5.637 0 0 0-5.627-5.626v34.128a5.636 5.636 0 0 1-5.626 5.626zm-113.962 0h-11.156a5.636 5.636 0 0 0 5.626 5.626h11.157a5.637 5.637 0 0 0 5.626-5.626V248.233a5.636 5.636 0 0 0-5.626-5.626v34.128c0 3.1-2.528 5.627-5.627 5.627zm-56.932 5.627a5.637 5.637 0 0 0 5.626-5.626V248.234a5.637 5.637 0 0 0-5.627-5.626v34.128a5.636 5.636 0 0 1-5.626 5.626h-11.156a5.636 5.636 0 0 0 5.626 5.626h11.157zm125.118 0a5.637 5.637 0 0 0 5.626-5.626V248.234a5.637 5.637 0 0 0-5.627-5.626v34.128a5.636 5.636 0 0 1-5.626 5.626h-11.156a5.636 5.636 0 0 0 5.626 5.626h11.157z" opacity="1" data-original="#685e68"></path><path fill="#ffd064" d="m248.474 105.692 14.746 7.614v40.219l-14.746-9.916-14.746 9.916v-40.219z" opacity="1" data-original="#ffd064"></path><path fill="#837683" d="m140.698 41.383 78.439 1.93v69.773a6.78 6.78 0 0 1-5.589 6.715c-85.035 15.749-60.665 15.749-145.699 0a6.78 6.78 0 0 1-5.59-6.715V43.312z" opacity="1" data-original="#837683"></path><path fill="#685e68" d="M219.137 100.882v12.203a6.78 6.78 0 0 1-5.59 6.715c-85.035 15.749-60.664 15.749-145.699 0a6.78 6.78 0 0 1-5.59-6.715V43.312l10.533-.259v65.465c79.147 14.819 57.417 14.513 140.756-.921a6.779 6.779 0 0 0 5.59-6.715z" opacity="1" data-original="#685e68"></path><path fill="#837683" d="M140.698 16.001 250.432 45.15c1.35.359 1.35 2.286 0 2.645L140.698 76.944 30.964 47.795c-1.35-.359-1.35-2.286 0-2.645z" opacity="1" data-original="#837683"></path><path fill="#685e68" d="m229.717 39.648 20.715 5.503c1.35.359 1.35 2.287 0 2.645L140.698 76.944 30.964 47.796c-1.35-.358-1.35-2.286 0-2.645l20.715-5.503 89.019 23.646z" opacity="1" data-original="#685e68"></path><path d="M397.83 360.982h-8.981v-8.99h8.981zm7.997-24.989h-24.979a7.993 7.993 0 0 0-7.997 7.997v24.989a7.997 7.997 0 0 0 7.997 8.002h24.979a8.001 8.001 0 0 0 8.002-8.002V343.99a7.997 7.997 0 0 0-8.002-7.997zm29.865 15.998h8.99v8.99h-8.99zm-8.001 24.989h24.994a7.999 7.999 0 0 0 8.002-8.002V343.99a7.994 7.994 0 0 0-8.002-7.997h-24.994c-4.41 0-8.002 3.577-8.002 7.997v24.989c0 4.419 3.591 8.001 8.002 8.001zM304.14 360.982h-8.99v-8.99h8.99zm8.001-24.989h-24.993a7.993 7.993 0 0 0-7.997 7.997v24.989a7.997 7.997 0 0 0 7.997 8.002h24.993c4.406 0 7.997-3.582 7.997-8.002V343.99c0-4.42-3.591-7.997-7.997-7.997zm38.837 24.989h-8.981v-8.99h8.981zm8.002-24.989H334a7.997 7.997 0 0 0-8.002 7.997v24.989a8.001 8.001 0 0 0 8.002 8.002h24.979a7.997 7.997 0 0 0 7.997-8.002V343.99a7.992 7.992 0 0 0-7.996-7.997zm-101.688 24.989h-8.995v-8.99h8.995zm7.997-24.989H240.3c-4.411 0-8.002 3.577-8.002 7.997v24.989c0 4.42 3.591 8.002 8.002 8.002h24.989a8.001 8.001 0 0 0 8.002-8.002V343.99a7.997 7.997 0 0 0-8.002-7.997zM397.83 407.82h-8.981v-8.981h8.981zm7.997-24.98h-24.979a7.997 7.997 0 0 0-7.997 8.002v24.979a7.993 7.993 0 0 0 7.997 7.997h24.979a7.997 7.997 0 0 0 8.002-7.997v-24.979a8.001 8.001 0 0 0-8.002-8.002zm38.856 24.98h-8.99v-8.981h8.99zm16.003 8.001v-24.979a7.998 7.998 0 0 0-8.002-8.002H427.69c-4.41 0-8.002 3.582-8.002 8.002v24.979c0 4.42 3.591 7.997 8.002 7.997h24.994a7.994 7.994 0 0 0 8.002-7.997zm-203.394-8.001h-8.995v-8.981h8.995zm7.997-24.98H240.3c-4.411 0-8.002 3.582-8.002 8.002v24.979c0 4.42 3.591 7.997 8.002 7.997h24.989a7.997 7.997 0 0 0 8.002-7.997v-24.979a8.001 8.001 0 0 0-8.002-8.002zm38.851 24.98h-8.99v-8.981h8.99zm8.001-24.98h-24.993a7.997 7.997 0 0 0-7.997 8.002v24.979a7.993 7.993 0 0 0 7.997 7.997h24.993c4.406 0 7.997-3.577 7.997-7.997v-24.979c0-4.42-3.591-8.002-7.997-8.002zm38.837 24.98h-8.981v-8.981h8.981zm8.002-24.98H334a8.001 8.001 0 0 0-8.002 8.002v24.979a7.997 7.997 0 0 0 8.002 7.997h24.979a7.993 7.993 0 0 0 7.997-7.997v-24.979a7.997 7.997 0 0 0-7.996-8.002zm-101.688 71.832h-8.995v-8.981h8.995zm7.997-24.98H240.3c-4.411 0-8.002 3.577-8.002 7.997v24.979c0 4.42 3.591 8.002 8.002 8.002h24.989a8.001 8.001 0 0 0 8.002-8.002V437.69a7.998 7.998 0 0 0-8.002-7.998zm38.851 24.98h-8.99v-8.981h8.99zm8.001-24.98h-24.993a7.993 7.993 0 0 0-7.997 7.997v24.979a7.997 7.997 0 0 0 7.997 8.002h24.993c4.406 0 7.997-3.582 7.997-8.002V437.69c0-4.42-3.591-7.998-7.997-7.998zm38.837 24.98h-8.981v-8.981h8.981zm8.002-24.98H334a7.997 7.997 0 0 0-8.002 7.997v24.979A8.001 8.001 0 0 0 334 470.67h24.979a7.997 7.997 0 0 0 7.997-8.002V437.69a7.993 7.993 0 0 0-7.996-7.998zm38.85 24.98h-8.981v-8.981h8.981zm7.997-24.98h-24.979a7.993 7.993 0 0 0-7.997 7.997v24.979a7.997 7.997 0 0 0 7.997 8.002h24.979a8.001 8.001 0 0 0 8.002-8.002V437.69a7.998 7.998 0 0 0-8.002-7.998zm40.927 46.999v-19.952h19.957zm-217.294 11.31h199.976c.462 0 .89-.019 1.332-.061v-33.57c0-7.521 6.109-13.631 13.631-13.631h33.56c.047-.428.047-.871.047-1.323V318.502H214.949v154.997c0 7.993 6.51 14.502 14.511 14.502zM33.988 458.772c0 .25.231.48.48.48H198.95V401.4h-30.072a7.994 7.994 0 0 1-7.997-8.002 7.993 7.993 0 0 1 7.997-7.997h30.072v-20.39h-30.072c-4.42 0-7.997-3.582-7.997-8.002s3.577-7.997 7.997-7.997h30.072V311.63h-30.072a7.997 7.997 0 0 1-7.997-8.002 7.996 7.996 0 0 1 7.997-7.997h30.072v-11.744c0-3.008.447-5.907 1.262-8.656h-31.334a7.997 7.997 0 0 1-7.997-8.002c0-4.41 3.577-8.002 7.997-8.002h42.639c5.041-3.667 11.24-5.851 17.943-5.851h3.987v-5.149c0-7.507 6.114-13.617 13.622-13.617h11.16c7.512 0 13.631 6.109 13.631 13.617v5.149h24.151v-5.149c0-7.507 6.11-13.617 13.622-13.617h11.155c7.512 0 13.631 6.109 13.631 13.617v5.149h8.218V107.069H302.28c-6.75 0-12.243-5.488-12.243-12.238V54.47h-33.56v46.612l9.192 5.3a7.984 7.984 0 0 1 4.001 6.929v40.22a8.01 8.01 0 0 1-4.429 7.159 8.06 8.06 0 0 1-3.572.842 8.04 8.04 0 0 1-4.811-1.61l-8.378-6.302-8.369 6.302a8.04 8.04 0 0 1-8.393.767 8.012 8.012 0 0 1-4.42-7.159v-40.22a7.985 7.985 0 0 1 4.001-6.929l9.179-5.3V58.72l-13.33 3.54v56.511a7.991 7.991 0 0 1-6.561 7.87c-13.339 2.443-24.349 4.571-33.188 6.279-23.13 4.472-34.911 6.712-46.687 6.712-11.781 0-23.572-2.24-46.692-6.712-8.849-1.708-19.849-3.836-33.188-6.279a7.991 7.991 0 0 1-6.561-7.87V62.26l-20.282-5.38v401.892zM140.712 24.28l83.547 22.188-83.547 22.202-83.561-22.202zM70.269 66.51l68.382 18.168a7.862 7.862 0 0 0 4.109 0l68.391-18.168v45.6c-10.511 1.949-19.402 3.671-26.792 5.102-43.647 8.439-43.647 8.439-87.308 0a3190.261 3190.261 0 0 0-26.782-5.102zm183.399 51.418v19.571l-.376-.278a7.997 7.997 0 0 0-4.81-1.61c-1.69 0-3.38.541-4.801 1.61l-.381.278v-19.571l5.182-2.998zm77.663-26.857h-25.29V65.79zm-19.322 183.29V250.61h6.411v23.751zm-62.558 0V250.61h6.411v23.751zm133.901 15.998c7.507 0 13.626-6.109 13.626-13.622v-7.357h24.151v7.357c0 7.512 6.109 13.622 13.622 13.622h11.155c7.531 0 13.65-6.109 13.65-13.622v-7.357h3.954c8.002 0 14.497 6.51 14.497 14.507v18.611H214.949v-18.611c0-7.997 6.51-14.507 14.511-14.507h3.987v7.357c0 7.512 6.114 13.622 13.622 13.622h11.16c7.512 0 13.631-6.109 13.631-13.622v-7.357h24.151v7.357c0 7.512 6.11 13.622 13.622 13.622h11.155c7.512 0 13.631-6.109 13.631-13.622v-7.357h24.151v7.357c0 7.512 6.109 13.622 13.622 13.622zm-8.783-39.749v23.751h6.411V250.61zm62.559 0v23.751h6.425V250.61zm26.382 2.768h-3.954v-5.149c0-7.507-6.119-13.617-13.65-13.617h-11.155c-7.512 0-13.622 6.109-13.622 13.617v5.149h-24.151v-5.149c0-7.507-6.119-13.617-13.626-13.617h-11.16c-7.032 0-12.845 5.361-13.551 12.209V102.588c0-4.467-1.671-8.496-4.834-11.659L306.178 43.3c-3.158-3.158-7.188-4.829-11.65-4.829h-38.06L142.76 8.272a7.91 7.91 0 0 0-4.109 0L23.939 38.739a8.001 8.001 0 0 0-5.95 7.729c0 1.243.292 2.415.8 3.474-.522 1.6-.8 3.29-.8 5.018v403.812c0 9.08 7.399 16.479 16.479 16.479h164.543C199.92 491.258 213.231 504 229.46 504h199.976c8.27 0 15.716-3.093 21.553-8.929l34.078-34.082c5.884-5.851 8.943-13.302 8.943-21.572V283.888c0-16.828-13.65-30.51-30.5-30.51zm-302.629-75.917a7.993 7.993 0 0 1 7.997-7.997H299.4c4.42 0 8.002 3.577 8.002 7.997s-3.582 8.002-8.002 8.002H168.878a7.998 7.998 0 0 1-7.997-8.002zm0 36.389a7.998 7.998 0 0 1 7.997-7.997H299.4c4.42 0 8.002 3.587 8.002 7.997a8.001 8.001 0 0 1-8.002 8.002H168.878a7.998 7.998 0 0 1-7.997-8.002zm-43.882 177.241H85.232V359.32h31.767zm8.002-47.77a7.993 7.993 0 0 1 7.997 7.997v47.77a7.994 7.994 0 0 1-7.997 8.002H77.23a7.999 7.999 0 0 1-8.002-8.002v-47.77a7.997 7.997 0 0 1 8.002-7.997zm-8.002-41.999H85.232V269.55h31.767zm8.002-47.77a7.993 7.993 0 0 1 7.997 7.997v47.77c0 4.411-3.577 8.002-7.997 8.002H77.23c-4.419 0-8.002-3.591-8.002-8.002v-47.77a7.997 7.997 0 0 1 8.002-7.997zm-8.002-42.014H85.232v-31.767h31.767zm8.002-47.765a7.993 7.993 0 0 1 7.997 7.997v47.77a7.997 7.997 0 0 1-7.997 8.002H77.23a8.002 8.002 0 0 1-8.002-8.002v-47.77a7.997 7.997 0 0 1 8.002-7.997z" fill="#000000" opacity="1" data-original="#000000" class=""></path></g></g></svg>