<svg xmlns="http://www.w3.org/2000/svg" version="1.1" xmlns:xlink="http://www.w3.org/1999/xlink" width="512" height="512" x="0" y="0" viewBox="0 0 512 512" style="enable-background:new 0 0 512 512" xml:space="preserve" class=""><g><path fill="#eceff1" d="M22 139.751v271.587c0 8.41 6.829 15.252 15.224 15.252h241.458c-4.512-12.38-6.977-25.737-6.977-39.658 0-29.865 11.334-57.129 29.924-77.727h-30.577a7 7 0 0 1-7-7v-38.069a7 7 0 0 1 7-7h38.069a7 7 0 0 1 7 7v31.514c19.76-15.559 44.674-24.851 71.718-24.851 13.329 0 26.138 2.263 38.07 6.413V139.751z" opacity="1" data-original="#eceff1" class=""></path><circle cx="387.839" cy="386.931" r="77.529" fill="#eceff1" transform="rotate(-10.89 388.13 387.086)" opacity="1" data-original="#eceff1" class=""></circle><path fill-rule="evenodd" d="M439.909 283.141V76.426c0-16.114-13.109-29.223-29.224-29.223h-37.532v-14.26c0-13.238-10.782-24.008-24.036-24.008s-24.007 10.77-24.007 24.008v14.26h-35.408v-14.26c0-13.238-10.782-24.008-24.036-24.008s-24.008 10.77-24.008 24.008v14.26h-35.407v-14.26c0-13.238-10.782-24.008-24.036-24.008s-24.008 10.77-24.008 24.008v14.26H122.8v-14.26c0-13.238-10.782-24.008-24.036-24.008s-24.008 10.77-24.008 24.008v14.26H37.224C21.11 47.203 8 60.313 8 76.426v362.69c0 16.13 13.109 29.252 29.224 29.252h267.907c21.078 21.403 50.368 34.696 82.708 34.696 64.052 0 116.161-52.097 116.161-116.133 0-45.33-26.115-84.671-64.091-103.791zM339.11 32.943c0-5.518 4.489-10.008 10.007-10.008s10.036 4.489 10.036 10.008v14.26H339.11zm-83.452 0c0-5.518 4.489-10.008 10.008-10.008s10.036 4.489 10.036 10.008v14.26h-20.044zm-83.451 0c0-5.518 4.489-10.008 10.008-10.008s10.036 4.489 10.036 10.008v14.26h-20.044zm-83.451 0c0-5.518 4.489-10.008 10.008-10.008S108.8 27.424 108.8 32.943v14.26H88.756zm-51.532 28.26h37.532v7.683c0 13.238 10.77 24.008 24.008 24.008a7 7 0 1 0 0-14c-5.519 0-10.008-4.49-10.008-10.008v-7.683h69.451v7.683c0 13.238 10.77 24.008 24.008 24.008a7 7 0 1 0 0-14c-5.519 0-10.008-4.49-10.008-10.008v-7.683h69.451v7.683c0 13.238 10.77 24.008 24.008 24.008a7 7 0 1 0 0-14c-5.519 0-10.008-4.49-10.008-10.008v-7.683h69.452v7.683c0 13.238 10.77 24.008 24.007 24.008a7 7 0 1 0 0-14c-5.518 0-10.007-4.49-10.007-10.008v-7.683h71.575c8.395 0 15.224 6.829 15.224 15.223v49.324H22V76.426c0-8.394 6.829-15.223 15.224-15.223zM22 139.751h403.909v137.461a115.682 115.682 0 0 0-38.07-6.413c-27.044 0-51.958 9.292-71.718 24.851v-31.514a7 7 0 0 0-7-7h-38.069a7 7 0 0 0-7 7v38.069a7 7 0 0 0 7 7h30.577c-18.589 20.598-29.924 47.863-29.924 77.727 0 13.921 2.465 27.278 6.977 39.658H37.224c-8.395 0-15.224-6.842-15.224-15.252V139.751zm280.121 155.454h-24.069v-24.069h24.069zM37.224 454.369c-8.395 0-15.224-6.842-15.224-15.252v-2.82a29.03 29.03 0 0 0 15.224 4.293H284.87a116.307 116.307 0 0 0 8.475 13.779zm350.615 34.696c-56.316 0-102.134-45.817-102.134-102.133s45.817-102.133 102.134-102.133S490 330.616 490 386.932s-45.829 102.133-102.161 102.133zm0-193.662c-50.47 0-91.529 41.06-91.529 91.529s41.06 91.528 91.529 91.528 91.528-41.06 91.528-91.528-41.06-91.529-91.528-91.529zm0 169.057c-42.75 0-77.529-34.779-77.529-77.528s34.779-77.529 77.529-77.529 77.528 34.779 77.528 77.529-34.779 77.528-77.528 77.528zm36.754-50.674-19.845-19.844a18.21 18.21 0 0 0 1.401-7.01c0-7.617-4.678-14.158-11.31-16.913v-21.581a7 7 0 1 0-14 0v21.585c-6.616 2.758-11.282 9.296-11.282 16.91 0 10.096 8.201 18.31 18.282 18.31a18.19 18.19 0 0 0 7.01-1.401l19.846 19.845c1.366 1.367 3.158 2.05 4.949 2.05s3.583-.684 4.95-2.05a7 7 0 0 0 0-9.899zm-41.036-26.855c0-2.377 1.921-4.311 4.282-4.311a4.316 4.316 0 0 1 4.31 4.311 4.295 4.295 0 0 1-1.248 3.027l-.019.017-.016.018a4.295 4.295 0 0 1-3.027 1.248c-2.361 0-4.282-1.934-4.282-4.31zM67.611 227h38.068a7 7 0 0 0 7-7v-38.069a7 7 0 0 0-7-7H67.611a7 7 0 0 0-7 7V220a7 7 0 0 0 7 7zm7-38.069h24.068V213H74.611zm-7 202.449h38.068a7 7 0 0 0 7-7v-38.069a7 7 0 0 0-7-7H67.611a7 7 0 0 0-7 7v38.069a7 7 0 0 0 7 7zm7-38.069h24.068v24.069H74.611zM135.415 227h38.069a7 7 0 0 0 7-7v-38.069a7 7 0 0 0-7-7h-38.069a7 7 0 0 0-7 7V220a7 7 0 0 0 7 7zm7-38.069h24.069V213h-24.069zm-7 202.449h38.069a7 7 0 0 0 7-7v-38.069a7 7 0 0 0-7-7h-38.069a7 7 0 0 0-7 7v38.069a7 7 0 0 0 7 7zm7-38.069h24.069v24.069h-24.069zM203.248 227h38.068a7 7 0 0 0 7-7v-38.069a7 7 0 0 0-7-7h-38.068a7 7 0 0 0-7 7V220a7 7 0 0 0 7 7zm7-38.069h24.068V213h-24.068zm-7 202.449h38.068a7 7 0 0 0 7-7v-38.069a7 7 0 0 0-7-7h-38.068a7 7 0 0 0-7 7v38.069a7 7 0 0 0 7 7zm7-38.069h24.068v24.069h-24.068zM271.052 227h38.069a7 7 0 0 0 7-7v-38.069a7 7 0 0 0-7-7h-38.069a7 7 0 0 0-7 7V220a7 7 0 0 0 7 7zm7-38.069h24.069V213h-24.069zM338.857 227h38.068a7 7 0 0 0 7-7v-38.069a7 7 0 0 0-7-7h-38.068a7 7 0 0 0-7 7V220a7 7 0 0 0 7 7zm7-38.069h24.068V213h-24.068zM67.612 309.204h38.068a7 7 0 0 0 7-7v-38.069a7 7 0 0 0-7-7H67.612a7 7 0 0 0-7 7v38.069a7 7 0 0 0 7 7zm7-38.069H98.68v24.069H74.612zm60.804 38.069h38.069a7 7 0 0 0 7-7v-38.069a7 7 0 0 0-7-7h-38.069a7 7 0 0 0-7 7v38.069a7 7 0 0 0 7 7zm7-38.069h24.069v24.069h-24.069zm60.833 38.069h38.068a7 7 0 0 0 7-7v-38.069a7 7 0 0 0-7-7h-38.068a7 7 0 0 0-7 7v38.069a7 7 0 0 0 7 7zm7-38.069h24.068v24.069h-24.068zm170.617 51.252c0-3.855 3.118-7.001 6.973-7.001s7.002 3.146 7.002 7.001-3.146 7.001-7.002 7.001-6.973-3.146-6.973-7.001zm-33.704 13.974c2.721 2.721 2.721 7.144 0 9.893-2.721 2.721-7.171 2.721-9.893 0-2.749-2.75-2.749-7.172 0-9.893a6.963 6.963 0 0 1 9.893 0zm-16.866 50.57a6.98 6.98 0 0 1-7.001 7.001c-3.855 0-6.974-3.118-6.974-7.001 0-3.855 3.118-7.001 6.974-7.001a6.998 6.998 0 0 1 7.001 7.001zm16.866 40.705c2.721 2.721 2.721 7.143 0 9.892-2.721 2.721-7.171 2.721-9.893 0-2.749-2.75-2.749-7.171 0-9.892a6.963 6.963 0 0 1 9.893 0zm47.679 23.839a6.998 6.998 0 0 1-7.002 7.001c-3.855 0-7.001-3.146-7.001-7.001s3.146-7.002 7.001-7.002a6.998 6.998 0 0 1 7.002 7.002zm43.597-23.839c2.721 2.721 2.721 7.143 0 9.892-2.722 2.721-7.172 2.721-9.893 0-2.75-2.75-2.75-7.171 0-9.892a6.963 6.963 0 0 1 9.893 0zm20.948-40.705a6.98 6.98 0 0 1-7.002 7.001 6.998 6.998 0 0 1-7.001-7.001c0-3.855 3.146-7.001 7.001-7.001a6.998 6.998 0 0 1 7.002 7.001zm-20.948-50.57c2.721 2.721 2.721 7.144 0 9.893-2.722 2.721-7.172 2.721-9.893 0-2.75-2.75-2.75-7.172 0-9.893a6.963 6.963 0 0 1 9.893 0z" fill="#000000" opacity="1" data-original="#000000" class=""></path><path fill="#8ac9fe" d="M278.052 271.135h24.069v24.069h-24.069zM74.611 353.311h24.068v24.069H74.611zM210.248 353.311h24.068v24.069h-24.068z" opacity="1" data-original="#8ac9fe"></path><path fill="#fe646f" d="M387.839 382.621c-2.361 0-4.282 1.934-4.282 4.311s1.921 4.31 4.282 4.31a4.295 4.295 0 0 0 3.043-1.266l.019-.017a4.295 4.295 0 0 0 1.248-3.027 4.316 4.316 0 0 0-4.31-4.311z" opacity="1" data-original="#fe646f" class=""></path><path fill="#d2d9db" d="M37.224 440.589A29.03 29.03 0 0 1 22 436.296v2.82c0 8.41 6.829 15.252 15.224 15.252h256.121a116.307 116.307 0 0 1-8.475-13.779z" opacity="1" data-original="#d2d9db"></path><g fill="#8ac9fe"><path d="M142.415 188.931h24.069V213h-24.069zM142.415 271.135h24.069v24.069h-24.069zM74.611 271.135h24.068v24.069H74.611zM74.611 188.931h24.068V213H74.611zM142.415 353.311h24.069v24.069h-24.069z" fill="#8ac9fe" opacity="1" data-original="#8ac9fe"></path></g><path fill="#fe646f" d="M387.839 284.798c-56.316 0-102.134 45.817-102.134 102.133s45.817 102.133 102.134 102.133S490 443.247 490 386.931s-45.829-102.133-102.161-102.133zm0 193.661c-50.47 0-91.529-41.06-91.529-91.528s41.06-91.529 91.529-91.529 91.528 41.06 91.528 91.529-41.06 91.528-91.528 91.528z" opacity="1" data-original="#fe646f" class=""></path><path fill="#8ac9fe" d="M345.856 188.931h24.068V213h-24.068zM210.248 188.931h24.068V213h-24.068zM278.052 188.931h24.069V213h-24.069z" opacity="1" data-original="#8ac9fe"></path><path fill="#fe646f" d="M425.909 76.426c0-8.394-6.829-15.223-15.224-15.223H339.11v7.683c0 5.518 4.489 10.008 10.007 10.008a7 7 0 1 1 0 14c-13.237 0-24.007-10.77-24.007-24.008v-7.683h-69.452v7.683c0 5.518 4.489 10.008 10.008 10.008a7 7 0 1 1 0 14c-13.238 0-24.008-10.77-24.008-24.008v-7.683h-69.451v7.683c0 5.518 4.489 10.008 10.008 10.008a7 7 0 1 1 0 14c-13.238 0-24.008-10.77-24.008-24.008v-7.683H88.756v7.683c0 5.518 4.489 10.008 10.008 10.008a7 7 0 1 1 0 14c-13.238 0-24.008-10.77-24.008-24.008v-7.683H37.224C28.829 61.203 22 68.032 22 76.426v49.324h403.909z" opacity="1" data-original="#fe646f" class=""></path><path fill="#8ac9fe" d="M210.248 271.135h24.068v24.069h-24.068z" opacity="1" data-original="#8ac9fe"></path></g></svg>